<?xml version="1.0" encoding="utf-8"?>
<!-- Generator: Adobe Illustrator 19.1.0, SVG Export Plug-In . SVG Version: 6.00 Build 0)  -->
<svg version="1.1" id="Layer_1" xmlns="http://www.w3.org/2000/svg" xmlns:xlink="http://www.w3.org/1999/xlink" x="0px" y="0px"
	 viewBox="0 0 920 370" style="enable-background:new 0 0 920 370;" xml:space="preserve">
<style type="text/css">
	.st0{fill:#EC1C24;}
	.st1{fill:#FFFFFF;}
</style>
<g>
	<g>
		<path class="st0" d="M6.7,188c-3.2,0-6-2.8-6-6.2c0-3.4,2.8-6.2,6-6.2h12.9V58.2H6.7c-3.2,0-6-2.8-6-6.2c0-3.4,2.8-6.2,6-6.2H71
			c24.7,0,38.4,16.1,38.4,35.8c0,16.7-11.5,29.6-21.5,34c19.5,9.4,23.7,22.5,23.7,33.6c0,21.3-15.1,38.6-40,38.6H6.7z M69.4,110
			c15.1,0,25.7-12.3,25.7-27.5c0-13.9-9.4-24.3-22.1-24.3H34v117.4h40c12.5,0,23.3-11.9,23.3-26.9c0-14.7-9-26.5-30.2-26.5H48.1
			c-3.2,0-6-2.8-6-6.2c0-3.4,2.8-6.2,6-6.2H69.4z"/>
		<path class="st0" d="M120.6,116.6c0-41.4,32.8-74.4,73.8-74.4c40.2,0,73.2,33,73.2,73.4c0,41.4-32.2,75.2-73.2,75.2
			C153.6,190.8,120.6,157.7,120.6,116.6z M253.3,116.2c0-32.6-26.3-60.7-58.9-60.7c-33,0-59.5,27.7-59.5,60.7
			c0,33.4,26.3,61.5,59.3,61.5C227,177.4,253.3,149.4,253.3,116.2z"/>
		<path class="st0" d="M275.6,116.6c0-41.4,32.8-74.4,73.8-74.4c40.2,0,73.2,33,73.2,73.4c0,41.4-32.2,75.2-73.2,75.2
			C308.6,190.8,275.6,157.7,275.6,116.6z M408.3,116.2c0-32.6-26.3-60.7-58.9-60.7c-33,0-59.5,27.7-59.5,60.7
			c0,33.4,26.3,61.5,59.3,61.5C382.1,177.4,408.3,149.4,408.3,116.2z"/>
		<path class="st0" d="M499.9,110c2.2,0,4.6,0.8,6.2,3.2l32,62.5h12.5c3.2,0,6,2.8,6,6.2c0,3.4-2.8,6.2-6,6.2h-11.5
			c-11.5,0-11.9,0-15.5-7.2l-24.9-50.1c-4-8-4.2-8.4-10.1-8.4h-24.7v53.3h12.9c3.2,0,6,2.8,6,6.2c0,3.4-2.8,6.2-6,6.2h-40.2
			c-3.2,0-6-2.8-6-6.2c0-3.4,2.8-6.2,6-6.2h12.9V58.2h-12.9c-3.2,0-6-2.8-6-6.2c0-3.4,2.8-6.2,6-6.2h40.2c3.2,0,6,2.8,6,6.2
			c0,3.4-2.8,6.2-6,6.2h-12.9V110h17.7L516,50.5c1-1.6,3-4.6,7.2-4.6h15.7c3,0,5.8,3,5.8,6.8c0,3-2.8,5.6-5.8,5.6h-9.2L499.9,110z"
			/>
	</g>
	<g>
		<path class="st0" d="M4.8,343.1c-2.6,0-4.8-2.2-4.8-5c0-2.7,2.2-5,4.8-5h10.4v-94.4H4.8c-2.6,0-4.8-2.2-4.8-5c0-2.7,2.2-5,4.8-5
			h51.7c19.8,0,30.9,13,30.9,28.8c0,13.4-9.3,23.8-17.3,27.4c15.7,7.5,19,18.1,19,27c0,17.1-12.2,31-32.2,31H4.8z M55.2,280.4
			c12.2,0,20.6-9.9,20.6-22.1c0-11.2-7.5-19.5-17.8-19.5H26.7v94.4h32.2c10.1,0,18.7-9.6,18.7-21.6c0-11.8-7.2-21.3-24.3-21.3H38.1
			c-2.6,0-4.8-2.2-4.8-5c0-2.7,2.2-5,4.8-5H55.2z"/>
		<path class="st0" d="M173.8,233.8c0-2.7,2.2-5,4.8-5h17.1c2.6,0,4.8,2.2,4.8,5c0,2.7-2.2,5-4.8,5h-10.4v69
			c0,22.7-17,37.8-37.5,37.8c-20.5,0-37.1-15-37.1-37.8v-69h-10.4c-2.6,0-4.8-2.2-4.8-5c0-2.7,2.2-5,4.8-5h17.1c2.6,0,4.8,2.2,4.8,5
			v73.3c0,16,11.5,27.8,25.6,27.8c14.1,0,25.9-11.8,25.9-27.8V233.8z"/>
		<path class="st0" d="M291,323.1v-89.3c0-2.7,2.2-5,4.8-5h17.1c2.6,0,4.8,2.2,4.8,5c0,2.7-2.2,5-4.8,5h-10.4v99.4
			c0,2.7-2.2,5-4.8,5h-4.6c-1.6,0-3.2-1-4.8-3.5l-55.4-91.2v89.8c0,2.7-2.2,5-4.8,5h-17.1c-2.6,0-4.8-2.2-4.8-5c0-2.7,2.2-5,4.8-5
			h10.4v-94.4h-10.4c-2.6,0-4.8-2.2-4.8-5c0-2.7,2.2-5,4.8-5h20.6c1.6,0,3,0.8,3.8,2.1L291,323.1z"/>
		<path class="st0" d="M328.9,343.1c-2.6,0-4.8-2.2-4.8-5c0-2.7,2.2-5,4.8-5h10.4v-94.4h-10.4c-2.6,0-4.8-2.2-4.8-5
			c0-2.7,2.2-5,4.8-5h46.6c16.3,0,28.6,3.8,40.7,15.5c11.2,11,17,26.2,17,41.9c0,15-5.9,29.6-16.3,40.7
			c-11.7,12.3-24.6,16.2-41.3,16.2H328.9z M350.8,238.7v94.4h22.4c13.8,0,25.1-3,34.9-13.4c8.3-8.8,13.4-20.8,13.4-33
			c0-12.8-5-26.9-14.4-35.9c-10.1-9.6-19.8-12.2-33.5-12.2H350.8z"/>
		<path class="st0" d="M444.3,343.1c-2.6,0-4.8-2.2-4.8-5c0-2.7,2.2-5,4.8-5h10.4v-94.4h-10.4c-2.6,0-4.8-2.2-4.8-5
			c0-2.7,2.2-5,4.8-5h17.1c2.6,0,4.8,2.2,4.8,5v99.4h43.9v-14.4c0-3.2,2.4-5.8,5.9-5.8c2.9,0,5.6,2.6,5.6,5.8v17.9
			c0,3.5-2.7,6.4-5.6,6.4H444.3z"/>
		<path class="st0" d="M602.4,333.2v-14.4c0-3.2,2.4-5.8,5.9-5.8c2.9,0,5.6,2.6,5.6,5.8v17.9c0,3.5-2.7,6.4-5.6,6.4h-77.1
			c-2.6,0-4.8-2.2-4.8-5c0-2.7,2.2-5,4.8-5h10.4v-94.4h-10.4c-2.6,0-4.8-2.2-4.8-5c0-2.7,2.2-5,4.8-5h77.1c2.9,0,5.6,2.9,5.6,6.4
			v17.9c0,3.2-2.7,5.8-5.6,5.8c-3.5,0-5.9-2.6-5.9-5.8v-14.4h-49.3v41.6h43.7c2.6,0,4.8,2.2,4.8,5c0,2.7-2.2,5-4.8,5h-43.7v42.9
			H602.4z"/>
		<path class="st0" d="M680.7,246.3c-4.6-7.4-12.5-10.4-22.4-10.4c-11,0-23.2,8-23.2,20c0,15.7,13.8,19,27.8,22.9
			c9.9,2.7,20.8,5.1,28,11.4c7,5.8,8.8,12.2,8.8,21.1c0,18.4-16.8,32.2-35.5,32.2c-5.1,0-12.8-0.2-16.8-0.2
			c-5.4-0.2-12.8-0.2-19.7-0.2c-2.6,0-4.8-2.2-4.8-5c0-2.7,2.2-5,4.8-5h34.9c11.8,0,25.6-7.8,25.6-20.8c0-17-17.1-20.2-30.6-24.3
			c-17.3-5.3-34.1-10.4-34.1-31.9c0-18.2,17.3-30.4,34.9-30.4c14.7,0,22.7,7.2,25.9,11.5v-4.2c0-2.7,2.4-4.8,5.1-4.8
			c2.7,0,4.8,2.1,4.8,4.8v21.3c0,2.9-2.6,5.4-5.6,5.4c-2.4,0-4.6-1.8-5.1-4C683.3,254.3,683.4,250.6,680.7,246.3z"/>
	</g>
	<g>
		<path class="st0" d="M716.4,335.4c2.1,0,3.7,1.8,3.7,4c0,2.2-1.6,4-3.7,4c-2.2,0-3.8-1.8-3.8-4
			C712.6,337.2,714.2,335.4,716.4,335.4z"/>
		<path class="st0" d="M742.4,338.1h5c1.3,0,2.4,1.1,2.4,2.5c0,1.4-1.1,2.5-2.4,2.5h-15.7c-1.3,0-2.4-1.1-2.4-2.5
			c0-1.4,1.1-2.5,2.4-2.5h5.4v-32.1h-5.4c-1.3,0-2.4-1.1-2.4-2.5c0-1.4,1.1-2.5,2.4-2.5h7.7c1.7,0,3,1.4,3,2.8V338.1z M739.5,285.5
			c2.2,0,3.7,1.7,3.7,3.8c0,2.2-1.5,3.8-3.7,3.8c-2.2,0-3.7-1.7-3.7-3.8C735.8,287.2,737.3,285.5,739.5,285.5z"/>
		<path class="st0" d="M753.8,343.1c-1.3,0-2.4-1.1-2.4-2.5c0-1.4,1.1-2.5,2.4-2.5h5.2v-32.1h-5.2c-1.3,0-2.4-1.1-2.4-2.5
			c0-1.4,1.1-2.5,2.4-2.5h7.5c1.7,0,3,1.4,3,2.8v4.7c2.8-5.3,7.8-8.2,13.9-8.2c5,0,9.2,1.7,12.5,5.5c3.7,4.3,3.9,9,3.9,14.4v17.8
			h4.8c1.4,0,2.6,1.3,2.6,2.6c0,1.2-1.2,2.3-2.6,2.3h-7.3c-1.5,0-2.8-1.2-2.8-2.9v-18c0-3.9,0.2-7.9-1.8-11.4
			c-2.2-3.8-6.1-5.4-10.3-5.4c-3.7,0-7.2,1.3-9.6,4c-3.2,3.7-3.3,7-3.3,11.6v17h5.2c1.3,0,2.4,1.1,2.4,2.5c0,1.4-1.1,2.5-2.4,2.5
			H753.8z"/>
	</g>
	<g>
		<path class="st0" d="M915.8,149.6c-0.1,0-0.1,0-0.2,0c-1.3,1-135.5,43.3-136.7,44.3c-0.6,0.5-1.4,0.5-2.1,0.9
			c-0.4,0.2-2.3-1.3-2.8-1.8c-0.6-0.7-111.1-72.5-112.1-72.4c-0.5,0,3.2-5.5,4.2-5.7c0.3,0.8,105.1,66.5,110.9,70.2
			c0.7,0.4,1.3,0.4,2,0.2c1.8-0.6,131.2-40.9,131.4-40.8c0.8,0.1,1.6-0.3,2.4-0.4c1.2-0.1,1.8-0.9,2.3-1.8c1.7-2.8,2.7-10,2.1-13.2
			c-0.2-0.8-0.3-1.6-0.4-2.4c-0.1-0.3-0.2-0.6-0.3-0.9c-0.2,0-0.3-0.1-0.4,0c-1.1,0.8-136.7,39.1-137.9,40c-0.5,0.4-1.1,0.7-1.6,1
			c-0.7,0.5-1.3,0.4-1.9-0.2c-0.3-0.3-0.6-0.5-0.9-0.8c-1.6-1.5-110.9-65.2-111.7-65.1c-0.1,0-0.3-0.1-0.4-0.2
			c-0.4-0.5,3.1-5.6,4.1-5.8c0.3,0.4,108.3,61.9,110.6,63.2c0.8,0.5,1.7,0.6,2.6,0.3c3.3-0.9,133.7-36.1,134.4-36.5
			c0.4-0.1,0.9-0.1,1.2-0.3c0.5-0.4,0.8-0.9,1.1-1.5c0.3-0.5,0.5-1.1,0.8-1.7c1.3-3.2,2-9.8,1.2-13c-0.2-0.6-0.2-1.2-0.3-1.8
			c-0.1-0.4,0-0.8-0.4-1.2c-0.1,0-0.3,0-0.4,0c-1.1,0.9-137.5,37.8-138.9,38.7c-0.5,0.3-1,0.5-1.5,0.8c-0.6,0.4-1.2,0.2-1.7-0.2
			c-0.3-0.3-0.7-0.5-1-0.8c-1.8-1.6-110.7-61.3-111.5-61.2c-0.1,0,3.3-6.4,3.9-6.6c0.3,0.3,104.9,57.4,110.7,60c1,0.5,2,0.6,3,0.3
			c6.5-1.5,130-34.9,131.4-35.2c0.3,0,0.6,0,0.8,0c0.7,0,1.3-0.1,2-0.3c0.1,0,0.3-0.2,0.4-0.1c1,0.1,1.4-0.6,1.9-1.3
			c2.4-3.6,3-10.7,2.3-14.6c-0.2-0.9-0.3-1.9-0.5-2.8c0-0.2-0.1-0.4-0.1-0.6c-0.1-0.1-0.3-0.2-0.5-0.2c-0.1,0-0.2,0.1-0.3,0.1
			c-1.1,0.9-136.9,38.7-138.1,39.4c-0.5,0.3-1.1,0.6-1.6,0.9c-0.7,0.4-1.3,0.4-2-0.1c-0.3-0.2-0.6-0.4-0.9-0.7
			c-1.8-1.5-111.6-60.3-112.4-60.2c-0.5,0.1-0.7-0.2-0.7-0.7c-0.1-0.9,0.1-1.5,0.8-2.1c1.1-0.8,2.2-1.3,3.4-1.7
			c1.7-0.5,104.5-26.9,108.3-27.7c0.5-0.1,0.9-0.1,1.4-0.3c0.8-0.2,4-0.4,4.1-0.5c0.4-0.3,0.9-0.4,1.3-0.3
			c0.5,0.1,125.3,46.6,132.9,50c1.2,0.6,2.3,1.3,3.5,1.9c0.4,0.2,0.8,0.6,1.2,1c0.2,0.2,0.4,0.6,0.5,0.8c0.2,1,0.3,2,0.4,3
			c0.6,5.3,0.4,12.3-3,16.7c-0.4,0.5-0.7,1-0.7,1.8c0.4,0.3,0.8,0.6,1.2,0.8c0.9,0.6,1.4,1.3,1.5,2.4c0.4,2.8,0.5,5.6,0.2,8.4
			c-0.2,2.4-0.2,7.5-2.3,9.5c-0.3,0.3-0.6,0.7-0.9,1.1c-0.3,0.4-0.6,0.8-0.5,1.5c0.5,0.3,1.1,0.7,1.7,1.1c0.6,0.4,1,0.9,1.1,1.7
			c0.3,2.3,0.5,4.5,0.3,6.8c-0.2,2.3-0.3,7.9-2.3,10c-0.8,0.8-1.5,1.6-1.7,2.7c-0.1,0.3-0.6,0.6-0.9,0.9c0.3,0.2,0.6,0.3,0.8,0.5
			c0.5,0.2,0.9,0.5,1.4,0.7c0.9,0.5,1.5,1.2,1.6,2.3c0.3,2.5,0.4,5,0.2,7.5c-0.2,2.4-0.3,7.5-2.2,9.5c-0.8,0.8-1.5,1.7-1.7,2.9
			c-0.1,0.4-0.4,0.7-0.8,0.7c-1.4,0-119.2,42.1-135.3,48.1c-1.3,0.5-2.4-0.2-3.4-1.1c-0.3-0.2-3.2-2.2-3.5-2.3
			c-1.9-1.4-40.2-26.4-41.4-27.2c-3.2-2.2-66.4-47-68.5-48.5c-0.6-0.4,1.7-3.4,2.7-3.6c0.2,0.4,114.7,79.2,112.2,77.5
			c-2.7-1.8,1.1,0.4,1.9,0.1c1.7-0.6,134.6-45.7,135.5-45.7c0.2,0,0.4-0.3,0.5-0.4c0.7-0.9,1.4-1.8,1.6-3c0.7-2.7,2.1-9.9,1.2-12.7
			c-0.2-0.5-0.1-1.1-0.2-1.7C916.2,150.2,916.2,149.8,915.8,149.6C915.7,149.6,916.2,149.8,915.8,149.6
			C915.7,149.6,916.2,149.8,915.8,149.6C915.7,149.6,916.2,149.8,915.8,149.6C915.7,149.6,916.2,149.8,915.8,149.6
			C915.7,149.6,916.2,149.8,915.8,149.6C915.7,149.6,916.2,149.8,915.8,149.6C915.7,149.6,916.2,149.8,915.8,149.6 M775.6,166.1
			l0-0.1L775.6,166.1L775.6,166.1z M774.7,194.9L774.7,194.9L774.7,194.9L774.7,194.9z M775.7,189.9
			C775.6,189.9,775.6,189.8,775.7,189.9c-0.1-0.1-0.1,0-0.1,0C775.5,189.9,775.6,190,775.7,189.9C775.6,190,775.6,189.9,775.7,189.9
			z M775,221.3c0,0,0-0.1,0-0.1C775,221.2,775,221.2,775,221.3L775,221.3z"/>
		<polygon class="st1" points="774.1,166.1 774.1,166.1 774.1,166 		"/>
		<polygon class="st1" points="773.2,194.9 773.3,194.8 773.3,194.9 		"/>
		<path class="st1" d="M774.1,189.9C774.1,189.9,774.1,190,774.1,189.9c-0.1,0-0.1,0-0.1,0C774,189.9,774.1,189.8,774.1,189.9
			C774.1,189.8,774.1,189.9,774.1,189.9"/>
		<path class="st1" d="M773.5,221.3L773.5,221.3c-0.1-0.1,0-0.1,0-0.1C773.5,221.2,773.5,221.2,773.5,221.3"/>
		<path class="st1" d="M789.5,71.1c0.5,0.8,0-3.7,0-11.6c0.1-3.9,0.3-8.8,2.5-13.6c1.1-2.3,2.7-4.6,4.9-6.3c2.2-1.6,5.1-2.8,8.1-2.7
			c2.9,0,5.4,1.7,6.4,4.3c1.1,2.6,0.9,5.5,0.2,8.1c-1.5,5.3-4.8,9.5-7.7,12.8c-6,6.6-11.5,9.3-12.2,9.9c-0.7,0.6,3.9-0.5,10.2-5.7
			c3.1-2.6,6.6-6.1,9.5-11c1.4-2.5,2.6-5.3,3-8.5c0.3-3.2-0.3-6.9-3-9.6c-2.8-2.7-6.8-2.9-10-2.1c-3.2,0.8-6.1,2.6-8.1,5
			c-4.1,4.7-5,10.5-5.2,15C787.8,64.4,789.2,70.3,789.5,71.1"/>
		<path class="st1" d="M785.8,73.9c1.2-0.3-5.1-0.7-16-2.4c-5.4-1-12.1-2.5-18.2-6.6c-3-2.1-5.9-4.9-7.7-8.4
			c-1.8-3.6-2.6-7.9-1.8-12c0.7-4.2,3.9-7.4,7.8-8.1c3.9-0.9,8,0.1,11.5,1.7c7,3.4,12,9,15.9,13.9c7.7,10,9.9,18.2,10.4,19.2
			c0.5,1.2,0-5.5-5.7-15.2c-2.9-4.8-6.9-10.4-12.9-15.4c-3-2.4-6.6-4.8-10.8-6c-4.2-1.2-9.4-1.2-13.6,1.7c-4.2,3-5.4,8.4-5.1,12.8
			c0.4,4.5,2.1,8.8,4.8,12.1c5.4,6.6,13,9.3,19.2,10.7C776.1,74.4,784.6,73.9,785.8,73.9"/>
		<path class="st1" d="M775.8,71.5c-3.2-0.6-7.2-1.4-10.8-3.9c-3.6-2.3-6.7-7.1-5.7-12.2c0.4-2.5,2.3-4.4,4.7-4.9
			c2.4-0.5,4.8,0.1,6.9,1c4.2,2.1,7.2,5.4,9.4,8.3c4.5,5.9,5.8,10.8,6.1,11.4c0.3,0.7-0.1-3.2-3.5-9c-1.7-2.8-4.1-6.2-7.6-9.1
			c-1.8-1.5-3.9-2.8-6.4-3.5c-2.5-0.7-5.5-0.7-8,1c-2.5,1.8-3.2,4.9-2.9,7.5c0.2,2.7,1.2,5.2,2.9,7.1c3.2,3.9,7.7,5.5,11.3,6.3
			C779.6,73.1,782.3,72.5,775.8,71.5"/>
		<path class="st1" d="M791.4,70.6c0.2,0.3,0-1.5-0.2-4.5c-0.1-1.5-0.1-3.4,0.6-5.2c0.6-1.8,2.4-3.6,4.7-3.7
			c2.3-0.2,3.2,2.5,2.7,4.5c-0.4,2-1.6,3.8-2.6,5.1c-2.1,2.7-4.1,3.8-4.3,4.1c-0.3,0.3,1.5-0.2,3.8-2.4c1.1-1.1,2.4-2.5,3.4-4.5
			c0.9-1.8,1.8-4.9-0.5-7.1c-2.6-1.9-5.7-0.2-7,1.6c-1.5,1.9-1.7,4.2-1.6,5.9C790.5,68.1,791.2,70.3,791.4,70.6"/>
		<polygon class="st1" points="783.6,75.7 725.1,89.6 715.4,182.8 722.2,189.8 732.5,96.1 		"/>
		<polygon class="st1" points="793.5,70.6 850,47 859.8,48.6 		"/>
	</g>
</g>
</svg>
