<?xml version="1.0" encoding="utf-8"?>
<!-- Generator: Adobe Illustrator 19.1.0, SVG Export Plug-In . SVG Version: 6.00 Build 0)  -->
<svg version="1.1" id="Layer_1" xmlns="http://www.w3.org/2000/svg" xmlns:xlink="http://www.w3.org/1999/xlink" x="0px" y="0px"
	 viewBox="0 0 920 370" style="enable-background:new 0 0 920 370;" xml:space="preserve">
<style type="text/css">
	.st0{fill-rule:evenodd;clip-rule:evenodd;fill:#560054;}
	.st1{fill:#560054;}
</style>
<g>
	<path class="st0" d="M399,56.7c-0.9,4.8-8.9,3.4-6.2-2c0.4-0.7,0.7-0.9,1.6-1c1-0.1,2.3,0.3,3.3,0.7C399,54.9,399.2,55.3,399,56.7"
		/>
	<path class="st0" d="M401.3,46.9c-0.6,5-8.8,3.6-6.3-1.7c0.3-0.7,0.5-1.1,1.4-1.1c1.3-0.2,3.1,0.5,4.2,1.1
		C401.4,45.7,401.4,46.2,401.3,46.9"/>
	<path class="st0" d="M404.2,37.9c-0.6,4.1-7.4,3-5.4-1.6c0.3-0.6,0.5-0.9,1.1-1c1-0.1,2.3,0.3,3.3,0.7
		C404.2,36.5,404.4,37,404.2,37.9"/>
	<path class="st0" d="M407.6,28.6c-0.9,4.2-7.7,2.5-5.2-1.9c0.4-0.7,0.8-0.9,1.5-0.9c1.1,0.1,2.4,0.6,3.1,1.2
		C407.7,27.4,407.7,27.9,407.6,28.6"/>
	<path class="st0" d="M411.3,19c-0.8,4.5-7.8,2.9-5.3-1.5c0.4-0.8,0.9-1,1.8-0.9c1,0.1,2.2,0.7,2.9,1.2
		C411.2,18.1,411.4,18.5,411.3,19"/>
	<path class="st0" d="M414.3,11.5c-0.9,3.5-6.2,2.3-4.4-1.2c0.4-0.8,0.9-1,1.8-0.8c0.8,0.2,1.7,0.6,2.2,0.9
		C414.3,10.7,414.4,11.1,414.3,11.5"/>
	<polygon class="st0" points="398.5,182.3 398.3,192.5 419.8,192.5 419.8,182.3 	"/>
	<polygon class="st0" points="398.7,167.4 398.6,177.6 419.8,177.6 419.7,167.4 	"/>
	<polygon class="st0" points="399,152.5 398.8,162.7 419.7,162.7 419.6,152.5 	"/>
	<polygon class="st0" points="399.3,137.7 399.1,147.9 419.6,147.9 419.5,137.7 	"/>
	<polygon class="st0" points="399.6,122.8 399.4,133 419.5,133 419.5,122.8 	"/>
	<polygon class="st0" points="399.9,107.9 399.7,118.2 419.5,118.2 419.4,107.9 	"/>
	<polygon class="st0" points="400.1,93.1 399.9,103.3 419.4,103.3 419.3,93.1 	"/>
	<path class="st0" d="M419.3,88.4l-0.1-10.2h-19c0,3.4,0,6.8,0,10.2H419.3z"/>
	<path class="st0" d="M419.4,73.4c0.5-4.4,2.1-7.2,6-10.5c4.3-3.6,9.1-6.4,10.4-12.1c0.7-7.6-11.5-17.2-3.3-26.6
		c5.1-5.5,10.6-10.6,5.3-18.4c-2.2-2.6-4.6-3.8-7.1-4.6c-9.9-2.4-10.7,2-13.7,10.2c-1.1,3.5-9.3,22-14.2,39.7
		c-2,7.3-2.5,14.7-2.6,22.2L419.4,73.4z"/>
	<path class="st1" d="M35,267.4c0.4,3.4,1.1,6.9,2.2,10.5c1.1,3.6,2.8,7,5.1,9.9c2.3,3,5.3,5.5,9.1,7.5c3.8,2,8.5,3,14.1,3
		c4.6,0,10.9-1.1,18.8-3.2l1.5,6.2c-3.9,1.8-7.8,3.4-11.8,4.9c-4,1.5-8.2,2.1-12.6,1.9c-6.6,0-12.7-1.1-18.3-3.4
		c-5.6-2.3-10.4-5.4-14.6-9.5c-4.1-4.1-7.4-8.9-9.9-14.6c-2.4-5.6-3.8-11.8-4-18.6c0-6.3,1.1-12.1,3.4-17.7
		c2.3-5.5,5.4-10.4,9.5-14.6c4.1-4.2,8.9-7.5,14.4-10c5.5-2.5,11.5-3.9,18-4.1c6.9,0.1,13.2,1.4,18.8,3.9c5.6,2.4,10.4,5.8,14.5,10
		c4,4.2,7.1,9.1,9.2,14.7c2.1,5.6,3.1,11.4,2.8,17.6c0,0.6,0,1.5-0.1,2.7c-0.1,1.2-0.1,2.2-0.1,2.9H35z M49.2,228.9
		c-2.8,1.7-5.2,3.9-7.1,6.6c-1.9,2.7-3.5,5.8-4.6,9.3c-1.1,3.5-1.9,7.1-2.3,10.9h49.2c-1-10.3-3.7-17.7-8.1-22.3
		c-4.4-4.6-10-7-16.9-7H59C55.3,226.4,52,227.2,49.2,228.9z"/>
	<path class="st1" d="M222.6,308.3h-21.8v-0.6l0.2-18.8c-2.1,3.9-4.2,7.1-6.3,9.6c-2.1,2.5-4.2,4.5-6.3,5.9c-2.1,1.4-4.4,2.4-6.9,3
		c-2.4,0.6-5,0.8-7.8,0.8c-8.3,0-15.3-1.1-21-3.2c-5.8-2.1-10.5-5.2-14.3-9.3c-3.8-4.1-6.6-9-8.5-14.7c-1.9-5.8-2.9-12.3-3.2-19.5
		c0.2-7.3,1.3-13.8,3.2-19.5c1.9-5.8,4.7-10.7,8.5-14.7c3.8-4.1,8.5-7.2,14.3-9.4c5.8-2.2,12.8-3.3,21-3.3c8.6,0,16,1.1,22.1,3.3
		c6.1,2.2,11,5.3,14.9,9.4c3.9,4.1,6.8,9,8.6,14.7c1.9,5.8,2.9,12.3,3.2,19.5v1.5v5.6v13.5v25.5V308.3z M201,258.1
		c0-6.3-0.6-11.5-1.9-15.7c-1.3-4.2-3-7.5-5.4-10.1c-2.3-2.5-5.1-4.3-8.4-5.3c-3.3-1.1-6.8-1.5-10.7-1.4c-3.9-0.1-7.5,0.3-10.7,1.3
		c-3.3,1-6,2.8-8.4,5.3c-2.3,2.5-4.1,5.9-5.4,10.1c-1.3,4.3-1.9,9.5-1.9,15.8v6.6c0,6.3,0.6,11.5,1.9,15.8c1.3,4.3,3,7.6,5.4,10.1
		c2.3,2.5,5.1,4.3,8.4,5.3c3.3,1,6.8,1.4,10.7,1.3c7.9,0.3,14.2-3,19.1-9.8c4.8-6.8,7.2-16.4,7.2-28.9V258.1z"/>
	<path class="st1" d="M303.8,214.4c1.5,0,2.9,0.1,4.3,0.2v9.8c-1.5-0.2-3.1-0.4-4.7-0.5c-1.6-0.1-3.2-0.1-4.7-0.1
		c-3.9-0.1-7.8,0.3-11.6,1.4c-3.9,1.1-7.4,2.8-10.5,5.3c-3.1,2.5-5.7,5.9-7.6,10.1c-1.9,4.2-2.9,9.4-2.9,15.7v52h-21.6v-44.5
		c0-15.3,4.7-27.3,14.2-36.2c9.5-8.8,23.1-13.2,41-13.2H303.8z"/>
	<path class="st1" d="M416.7,280.9c-1.9,5.8-4.8,10.7-8.6,14.7c-3.9,4.1-8.9,7.2-14.9,9.4c-6.1,2.2-13.4,3.3-22.1,3.3
		c-8.3,0-15.3-1.1-21-3.3c-5.8-2.2-10.5-5.3-14.3-9.4c-3.8-4.1-6.6-9-8.5-14.7c-1.9-5.8-2.9-12.3-3.2-19.5
		c0.2-7.3,1.3-13.8,3.2-19.7c1.9-5.9,4.7-10.9,8.5-15.1c3.8-4.2,8.5-7.4,14.3-9.8c5.7-2.3,12.8-3.5,21-3.5c5.6,0,10.6,0.7,14.9,2
		c4.3,1.3,8.3,2.9,11.9,4.6l0.4-22.3h21.6v9.2v3.7V230v16V257v4.3C419.6,268.6,418.6,275.1,416.7,280.9 M396.4,242.3
		c-1.2-4.3-3-7.8-5.3-10.5c-2.3-2.7-5.1-4.6-8.4-5.8c-3.3-1.2-6.8-1.7-10.7-1.6c-3.9-0.1-7.4,0.4-10.7,1.5c-3.3,1.1-6,3-8.4,5.7
		c-2.3,2.7-4.1,6.2-5.4,10.6c-1.2,4.4-1.9,9.7-1.9,16v6.6c0,6.3,0.6,11.5,1.9,15.8c1.3,4.3,3,7.6,5.4,10.1c2.3,2.5,5.1,4.3,8.4,5.3
		c3.3,1,6.8,1.4,10.7,1.3c3.9,0.1,7.5-0.3,10.7-1.4c3.3-1.1,6-2.8,8.4-5.3c2.3-2.5,4.1-5.9,5.3-10c1.2-4.2,1.9-9.4,1.9-15.7v-6.6
		C398.3,251.9,397.7,246.6,396.4,242.3z"/>
	<path class="st1" d="M501,214.4c1.5,0,2.9,0.1,4.3,0.2v9.8c-1.5-0.2-3.1-0.4-4.7-0.5c-1.6-0.1-3.2-0.1-4.7-0.1
		c-3.9-0.1-7.8,0.3-11.6,1.4c-3.9,1.1-7.4,2.8-10.5,5.3c-3.1,2.5-5.7,5.9-7.6,10.1c-1.9,4.2-2.9,9.4-2.9,15.7v52h-21.6v-44.5
		c0-15.3,4.7-27.3,14.2-36.2c9.4-8.8,23.1-13.2,41-13.2H501z"/>
	<path class="st1" d="M544.4,280.4c1,4.2,2.5,7.5,4.5,10c2,2.5,4.5,4.3,7.5,5.3c3,1.1,6.5,1.5,10.3,1.4c3.9,0.1,7.5-0.3,10.7-1.3
		c3.3-1,6-2.8,8.4-5.3c2.3-2.5,4.1-5.9,5.4-10.1c1.2-4.3,1.9-9.5,1.9-15.8v-50.5h21.6v44.7c0,15.3-4,27.3-12.1,36.2
		c-8.1,8.8-19.7,13.2-34.9,13.2c-8.4,0-15.5-1.2-21.4-3.5c-5.9-2.3-10.7-5.6-14.4-9.9c-3.7-4.3-6.4-9.4-8.1-15.5
		c-1.7-6.1-2.5-12.9-2.5-20.6v-44.7h21.6v50.5C542.9,271,543.4,276.2,544.4,280.4"/>
	<path class="st1" d="M778.1,242.3c-1-4.2-2.5-7.5-4.5-10c-2-2.5-4.5-4.3-7.5-5.4c-3-1.1-6.5-1.5-10.3-1.4
		c-3.9-0.1-7.5,0.3-10.7,1.3c-3.3,1-6,2.8-8.4,5.3c-2.3,2.5-4.1,5.9-5.4,10.1c-1.3,4.3-1.9,9.5-1.9,15.8c0,0.5,0,1.3,0.1,2.3
		c0.1,1,0.1,3.1,0.1,6.4v14.7v26.9h-21.6v-49.8c0-6.1-0.5-11.3-1.6-15.4c-1.1-4.1-2.6-7.4-4.6-9.9c-2-2.5-4.5-4.3-7.4-5.4
		c-2.9-1.1-6.4-1.5-10.2-1.4c-3.9-0.1-7.4,0.3-10.7,1.3c-3.3,1-6,2.8-8.4,5.3c-2.3,2.5-4.1,5.9-5.3,10.1c-1.3,4.3-1.9,9.5-1.9,15.8
		v49.4h-21.6v-43.6c0-15.3,4-27.3,12.1-36.2c8.1-8.8,19.7-13.3,34.8-13.3c8.5,0,15.7,1.2,21.6,3.5c5.9,2.3,10.6,5.7,14.3,10
		c4-4.6,9-8.2,14.9-10.6c5.9-2.4,12.9-3.7,20.8-3.7c8.4,0,15.5,1.2,21.4,3.5c5.9,2.3,10.7,5.6,14.4,9.9c3.7,4.3,6.4,9.4,8.1,15.5
		c1.7,6.1,2.5,12.9,2.5,20.6v44.3h-21.6V258C779.6,251.7,779.1,246.5,778.1,242.3"/>
	<path class="st1" d="M857.7,299c2.6-0.7,4.9-1.7,6.9-3c2-1.3,3.6-2.9,4.7-4.8c1.1-1.9,1.7-4.1,1.7-6.6c0-2.3-0.6-4.2-1.8-5.9
		c-1.2-1.7-2.8-3.2-4.7-4.5c-1.9-1.3-4.2-2.5-6.7-3.5c-2.5-1-5.1-2-7.9-3c-3.6-1.3-7.2-2.6-10.7-4.1c-3.5-1.5-6.7-3.3-9.5-5.5
		c-2.8-2.2-5.1-4.9-6.9-8.1c-1.8-3.2-2.6-7.1-2.6-11.7c0-3.9,0.9-7.4,2.8-10.5c1.9-3.1,4.4-5.8,7.6-8c3.2-2.2,6.9-3.9,11-5
		c4.1-1.1,8.5-1.7,13-1.7c3.5,0,6.6,0.1,9.4,0.4c2.7,0.3,5.3,0.7,7.7,1.3c2.4,0.6,4.6,1.5,6.8,2.5c2.1,1.1,4.4,2.3,6.9,3.8
		c0.4,2.5,0.5,4.7,0.5,6.5c-0.1,1.8-0.1,3.7-0.1,5.5c-1.5-1.1-3.1-2.3-4.8-3.4c-1.7-1.1-3.7-2.2-5.9-3.2c-2.3-1-4.9-1.8-7.9-2.5
		c-3-0.7-6.6-1.2-10.7-1.6c-2.4,0-4.7,0.3-7,0.8c-2.3,0.6-4.4,1.4-6.1,2.4c-1.7,1.1-3.2,2.4-4.3,4c-1.1,1.6-1.7,3.4-1.7,5.5
		c0,2.3,0.6,4.2,1.8,5.8c1.2,1.6,2.8,3.1,4.8,4.5c2,1.4,4.3,2.6,6.9,3.7c2.6,1.1,5.2,2.2,8,3.3c3.5,1.4,7,2.9,10.5,4.4
		c3.5,1.6,6.7,3.5,9.5,5.6c2.8,2.2,5.1,4.8,6.9,7.9c1.8,3.1,2.6,6.8,2.6,11.2c0,4.9-1.1,9.1-3.3,12.7c-2.2,3.6-5,6.5-8.5,8.7
		c-3.5,2.2-7.5,3.9-11.8,5c-4.4,1.1-8.7,1.6-13,1.6c-4.8-0.1-9.6-0.5-14.6-1.1c-5-0.6-10-1.7-15.1-3.2l-1.7-12.8
		c4.6,3.3,9.2,5.4,13.6,6.4c4.4,1,9.7,1.4,15.7,1.1C852.4,300,855.1,299.7,857.7,299"/>
	<path class="st1" d="M468.2,354.3c-0.2-4.6-0.5-10.2-0.5-14.3h-0.1c-1.1,3.9-2.5,8-4.2,12.6l-5.9,16.1h-3.2l-5.4-15.8
		c-1.6-4.7-2.9-9-3.8-12.9H445c-0.1,4.1-0.3,9.7-0.6,14.7l-0.9,14.2h-4.1l2.3-33.2h5.5l5.7,16c1.4,4.1,2.5,7.7,3.3,11.2h0.1
		c0.8-3.3,2-7,3.5-11.2l5.9-16h5.5l2.1,33.2h-4.2L468.2,354.3z"/>
	<path class="st1" d="M488.6,335.7v19.6c0,7.4,3.3,10.6,7.7,10.6c4.9,0,8.1-3.2,8.1-10.6v-19.6h4.3V355c0,10.2-5.4,14.4-12.6,14.4
		c-6.8,0-11.9-3.9-11.9-14.2v-19.5H488.6z"/>
	<path class="st1" d="M520,363.7c1.9,1.2,4.7,2.2,7.7,2.2c4.4,0,6.9-2.3,6.9-5.7c0-3.1-1.8-4.9-6.3-6.6c-5.4-1.9-8.8-4.7-8.8-9.4
		c0-5.2,4.3-9,10.7-9c3.4,0,5.9,0.8,7.3,1.6l-1.2,3.5c-1.1-0.6-3.3-1.6-6.3-1.6c-4.5,0-6.3,2.7-6.3,5c0,3.1,2,4.6,6.6,6.4
		c5.6,2.2,8.5,4.9,8.5,9.7c0,5.1-3.8,9.5-11.6,9.5c-3.2,0-6.7-0.9-8.5-2.1L520,363.7z"/>
	<rect x="549.3" y="335.7" class="st1" width="4.3" height="33.2"/>
	<path class="st1" d="M588.7,367.8c-1.6,0.8-4.7,1.6-8.8,1.6c-9.4,0-16.4-5.9-16.4-16.8c0-10.4,7-17.4,17.3-17.4
		c4.1,0,6.7,0.9,7.9,1.5l-1,3.5c-1.6-0.8-3.9-1.4-6.7-1.4c-7.8,0-12.9,5-12.9,13.7c0,8.1,4.7,13.3,12.8,13.3c2.6,0,5.3-0.5,7-1.4
		L588.7,367.8z"/>
	<polygon class="st1" points="617.7,335.7 617.7,349.6 633.7,349.6 633.7,335.7 638.1,335.7 638.1,368.9 633.7,368.9 633.7,353.3 
		617.7,353.3 617.7,368.9 613.4,368.9 613.4,335.7 	"/>
	<path class="st1" d="M654.2,335.7v19.6c0,7.4,3.3,10.6,7.7,10.6c4.9,0,8.1-3.2,8.1-10.6v-19.6h4.3V355c0,10.2-5.4,14.4-12.6,14.4
		c-6.8,0-11.9-3.9-11.9-14.2v-19.5H654.2z"/>
	<path class="st1" d="M686.3,336.1c1.9-0.4,4.8-0.7,7.8-0.7c4.3,0,7,0.7,9.1,2.4c1.7,1.3,2.7,3.3,2.7,5.9c0,3.2-2.1,6-5.6,7.3v0.1
		c3.1,0.8,6.8,3.4,6.8,8.3c0,2.9-1.1,5-2.8,6.6c-2.3,2.1-6.1,3.1-11.5,3.1c-2.9,0-5.2-0.2-6.6-0.4V336.1z M690.5,349.7h3.9
		c4.5,0,7.2-2.4,7.2-5.6c0-3.9-3-5.4-7.3-5.4c-2,0-3.1,0.2-3.8,0.3V349.7z M690.5,365.6c0.8,0.1,2.1,0.2,3.6,0.2
		c4.4,0,8.5-1.6,8.5-6.5c0-4.5-3.9-6.4-8.6-6.4h-3.5V365.6z"/>
	<polygon class="st1" points="882.7,209.8 882.7,197.2 878.1,197.2 878.1,195.6 889.3,195.6 889.3,197.2 884.6,197.2 884.6,209.8 	
		"/>
	<path class="st1" d="M891.9,209.8v-14.2h2.8l3.4,10.1c0.3,0.9,0.5,1.6,0.7,2.1c0.2-0.5,0.4-1.3,0.8-2.3l3.4-9.9h2.5v14.2h-1.8
		v-11.9l-4.2,11.9h-1.7l-4.1-12.1v12.1H891.9z"/>
</g>
</svg>
