<?xml version="1.0" encoding="utf-8"?>
<!-- Generator: Adobe Illustrator 19.1.0, SVG Export Plug-In . SVG Version: 6.00 Build 0)  -->
<svg version="1.1" id="Layer_1" xmlns="http://www.w3.org/2000/svg" xmlns:xlink="http://www.w3.org/1999/xlink" x="0px" y="0px"
	 viewBox="0 0 920 370" style="enable-background:new 0 0 920 370;" xml:space="preserve">
<style type="text/css">
	.st0{fill:#4D4E4E;}
	.st1{fill:#F7971D;}
	.st2{fill:#F7971F;}
</style>
<g>
	<g>
		<polygon class="st0" points="82.4,87 0,139.4 0,244.2 82.4,244.2 164.8,244.2 164.8,139.4 		"/>
		<g>
			<path class="st1" d="M113.8,176.8c-0.9,0-1.9,0.2-2.7,0.6l-26.2,13.1c-1.6,0.8-3.4,0.8-5,0l-26.2-13.1c-0.8-0.4-1.8-0.6-2.7-0.6
				c-3.3,0-6.1,2.7-6.1,6.1v61.3h7.5v-59.9l27.4,13.7c1.6,0.8,3.4,0.8,5,0l27.4-13.7l0,0v59.9h7.5v-61.3
				C119.8,179.6,117.1,176.8,113.8,176.8z"/>
			<circle class="st1" cx="63.7" cy="158.1" r="11.2"/>
			<circle class="st1" cx="101.1" cy="158.1" r="11.2"/>
		</g>
	</g>
	<g>
		<path class="st0" d="M218.3,177.6v-18.9H233v-18.1c0-17.9,4.1-31.2,12.5-39.7c8.3-8.5,20.4-13,36.2-13.6v18.3
			c-10.4,0.7-17.9,4-22.5,10c-4.6,6-6.8,14.6-6.8,25.7v17.3h26.5v18.9h-26.5v66.7H233v-66.7H218.3z"/>
		<g>
			<path class="st0" d="M290.8,125.7c0-3.5,1.3-6.4,3.8-8.6c2.5-2.3,5.3-3.4,8.2-3.4c2.9,0,5.7,1.1,8.1,3.4c2.5,2.3,3.7,5.2,3.7,8.6
				c0,3.6-1.2,6.5-3.7,8.7c-2.5,2.2-5.2,3.3-8.1,3.3c-2.9,0-5.7-1.1-8.2-3.3C292.1,132.3,290.8,129.3,290.8,125.7z"/>
			<rect x="293" y="158.9" class="st0" width="19.3" height="85.4"/>
		</g>
		<path class="st0" d="M383.8,181.6c-3.8,0-7.3,0.5-10.7,1.4c-3.4,0.9-6.4,2.4-9,4.3c-2.6,1.9-4.7,4.4-6.3,7.2
			c-1.6,2.9-2.4,6.3-2.4,10.1v39.6H336v-85.4h16.9c0.3,4.8,0.6,8.7,0.9,11.8c0.3,3,0.6,6.4,0.9,10.1c1.7-3.7,4.1-7.1,7-10
			c2.9-2.9,6-5.5,9.1-7.5c3.1-2.1,6.3-3.7,9.3-4.8c3.1-1.1,5.7-1.7,7.8-1.7L383.8,181.6z"/>
		<path class="st0" d="M449.7,164.7c-0.8,1.2-1.8,2.6-2.9,4.1c-1.1,1.5-2.2,3-3.3,4.3c-1.1,1.3-2.3,3-3.8,5
			c-1.3-0.9-2.6-1.7-3.9-2.2c-1.3-0.5-2.7-1-4.4-1.5c-1.7-0.5-3.4-0.7-5.1-0.7c-1.9,0-3.9,0.4-5.9,1.3c-2.1,0.9-3.1,2.6-3.1,5.3
			c0,2.3,0.9,4.2,2.7,5.7c1.8,1.5,4,2.9,6.6,4.2c2.6,1.3,5.5,2.6,8.6,3.9c3.1,1.3,6,3,8.6,5c2.6,2,4.8,4.5,6.6,7.5
			c1.8,3,2.7,6.7,2.7,11.1c0,3.9-0.7,7.4-2.1,10.6c-1.4,3.2-3.4,6-6,8.2c-2.6,2.3-5.7,4.1-9.3,5.4c-3.6,1.3-7.7,2-12.3,2
			c-5.5,0-10.8-0.9-16-2.8c-5.2-1.9-9.2-4.6-12.2-8c0.9-1.1,2.1-2.4,3.4-4c1.3-1.6,2.6-3.1,3.8-4.6c1.2-1.5,2.7-3.2,4.4-5.2
			c0-0.1,0.4,0.1,1.3,0.7c0.9,0.6,2,1.3,3.5,2.1c1.5,0.8,3.2,1.5,5.2,2.2c2,0.7,4.1,1,6.2,1c3.3,0,5.9-0.7,7.7-2.2
			c1.8-1.5,2.7-3.3,2.7-5.4c0-2.1-0.9-3.9-2.7-5.2c-1.8-1.3-4-2.6-6.6-3.7c-2.6-1.1-5.5-2.4-8.6-3.7c-3.1-1.3-6-3-8.6-5
			c-2.6-2-4.8-4.6-6.6-7.7c-1.8-3.1-2.7-7.1-2.7-12c0-4.8,0.9-8.8,2.6-12.1c1.7-3.2,4-5.8,6.7-7.8c2.7-2,5.7-3.4,8.9-4.3
			c3.2-0.9,6.4-1.3,9.4-1.3c4.2,0,8.5,0.8,13,2.5C442.9,159.2,446.6,161.6,449.7,164.7z"/>
		<path class="st0" d="M479.3,121.5h19.1v37.4h22.3v17.3h-22.3v68.1h-19.1v-68.1h-14.5v-17.3h14.5V121.5z"/>
		<path class="st2" d="M534.9,158.9H552c0.1,2.4,0.3,4.6,0.4,6.4c0.1,1.9,0.3,3.7,0.4,5.3c0.1,1.7,0.3,3.3,0.4,4.9
			c0.1,1.6,0.3,3.3,0.4,5.2c3.2-7.2,7.3-13,12.2-17.4c4.9-4.4,11.6-6.6,20.2-6.7c8.4,0,15.2,2.1,20.2,6.3c5,4.2,8,9.7,8.9,16.6
			c1.6-3.3,3.4-6.4,5.4-9.2c2-2.8,4.3-5.2,6.7-7.2c2.5-2,5.3-3.6,8.5-4.7c3.2-1.1,7-1.7,11.2-1.7c8.8,0,15.9,2.4,21.1,7.1
			c5.2,4.8,8,10.9,8.2,18.6v61.9H657v-52.8c-0.3-4.2-1.7-7.7-4.2-10.7c-2.5-3-6.8-4.7-12.7-4.9c-7.9,0-14,2.6-18.4,7.7
			c-4.4,5.2-6.5,11.8-6.5,19.8v41H596v-52.8c-0.3-4.2-1.7-7.7-4.3-10.7c-2.6-3-6.8-4.7-12.6-4.9c-7.9,0-14,2.6-18.4,7.7
			c-4.4,5.2-6.5,11.7-6.5,19.6v41.2h-19.3V158.9z"/>
		<path class="st2" d="M722.9,283h-19.3c2-4,3.9-7.9,5.6-11.5c1.7-3.7,3.5-7.4,5.2-11.3c1.7-3.8,3.5-7.7,5.4-11.8
			c1.9-4,3.9-8.4,6.2-13.1c-3.1-6-6.3-12.4-9.5-19.1c-3.3-6.7-6.6-13.5-9.9-20.3c-3.3-6.8-6.7-13.6-9.9-20.3
			c-3.3-6.7-6.4-13.1-9.3-19.1h20.9c5.1,9.9,9.2,18.2,12.5,24.9c3.2,6.7,5.8,12.3,7.8,16.9c2,4.6,3.5,8.3,4.6,11.1
			c1.1,2.9,1.9,5.5,2.6,7.9c0.8-2.4,1.7-5.1,2.8-7.9c1.1-2.9,2.6-6.6,4.6-11.1c2-4.6,4.6-10.2,7.8-16.9c3.2-6.7,7.4-15,12.5-24.9
			h20.7L722.9,283z"/>
		<path class="st0" d="M815.9,244.2h-19.1V87.4h19.1V244.2z"/>
		<path class="st0" d="M913,232.2c-4.2,3.8-9.2,6.7-15.1,8.8c-5.9,2.1-11.9,3.2-18.1,3.2c-6.3,0-12.2-1.2-17.8-3.5
			c-5.6-2.3-10.4-5.6-14.5-9.6c-4.1-4.1-7.3-8.8-9.7-14.3c-2.4-5.4-3.6-11.2-3.6-17.4c0-6.2,1.2-12,3.6-17.4
			c2.4-5.4,5.7-10.2,9.7-14.3c4.1-4.1,8.8-7.3,14.3-9.6c5.4-2.3,11.1-3.5,17.2-3.5c9.6,0,18.1,2.9,25.4,8.7
			c7.3,5.8,12.5,13.5,15.6,23c-4,1.5-8.7,3.2-14,5.3c-5.3,2.1-10.8,4.3-16.6,6.5c-5.8,2.3-11.5,4.6-17.3,6.9
			c-5.8,2.3-11,4.5-15.9,6.3c2.3,4.2,5.4,7.5,9.4,10c4,2.5,8.6,3.8,13.7,3.8c3.5,0,7-0.6,10.5-1.9c3.5-1.3,6.5-3,8.7-5.1L913,232.2z
			 M896.1,182c-1.6-2.9-4-5.1-7.2-6.5c-3.2-1.4-6.4-2.1-9.4-2.1c-3.6,0-7,0.7-10.2,2.1c-3.2,1.4-6,3.3-8.2,5.6c-2.3,2.3-4.1,5-5.4,8
			c-1.3,3-2,6.1-2,9.3v0.8c3.3-1.3,6.9-2.8,10.7-4.3c3.8-1.5,7.6-3.1,11.5-4.7c3.8-1.6,7.5-3.1,11-4.5
			C890.1,184.3,893.3,183,896.1,182z"/>
	</g>
</g>
</svg>
