<?xml version="1.0" encoding="utf-8"?>
<!-- Generator: Adobe Illustrator 19.1.0, SVG Export Plug-In . SVG Version: 6.00 Build 0)  -->
<svg version="1.1" id="Layer_1" xmlns="http://www.w3.org/2000/svg" xmlns:xlink="http://www.w3.org/1999/xlink" x="0px" y="0px"
	 viewBox="220 216 920 370" style="enable-background:new 220 216 920 370;" xml:space="preserve">
<style type="text/css">
	.st0{fill:#231F20;}
	.st1{fill:#EC1C24;}
	.st2{fill:#FFFFFF;}
	.st3{fill:#7F2C2E;}
	.st4{fill:#0094D9;}
</style>
<g>
	<g>
		<path class="st0" d="M442.5,404v-5c4,0,6.6-0.6,8-1.9c1.4-1.3,2-4,2-8v-48.3h-0.7c-4.6,0-8.3,1.3-11,3.7c-2.8,2.5-4.8,6.4-6,11.8
			h-5.1l0.6-21.3c2,0.1,4.1,0.2,6.3,0.2c2.2,0.1,5.2,0.1,9.2,0.1c2.2,0,4.9,0,8.3,0c3.3,0,5.5,0,6.6,0s3.3,0,6.6,0s6.1,0,8.3,0
			c3.9,0,7,0,9.2-0.1c2.2,0,4.3-0.1,6.3-0.2l0.7,21.3h-5.3c-1.3-5.4-3.3-9.3-6-11.8c-2.8-2.5-6.4-3.7-11-3.7h-0.8v48.3
			c0,4,0.7,6.6,2.1,7.9c1.4,1.3,4.1,2,8.1,2v5H442.5z M381,381.3h5.7c0.8,6.2,2.7,11,5.7,14.3c3,3.4,6.9,5.2,11.5,5.2
			c3.6,0,6.6-1.1,8.9-3.2c2.3-2.1,3.4-4.9,3.4-8.3c0-2.7-0.9-5-2.5-6.8c-1.7-1.9-5.3-4-10.8-6.4c-8.2-3.7-13.6-7.1-16.2-10.1
			c-2.5-3-3.8-6.8-3.8-11.4c0-6.3,2.1-11.5,6.5-15.3c4.3-3.9,10.1-5.8,17.4-5.8c2.6,0,5.4,0.3,8.5,0.7c3.1,0.5,6.4,1.3,9.9,2.3v18.8
			h-5.5c-0.7-5.5-2.3-9.5-4.8-12.2c-2.5-2.7-5.8-4.1-10-4.1c-3,0-5.4,0.9-7.4,2.7c-2,1.8-3,4-3,6.8c0,2.6,0.9,4.7,2.8,6.6
			c1.9,1.8,5.9,4.1,12,6.8c7.4,3.3,12.3,6.4,14.8,9.5s3.7,7,3.7,11.8c0,7.2-2.4,12.7-7.1,16.7c-4.7,3.9-11.5,5.8-20.2,5.8
			c-3.5,0-6.7-0.2-9.9-0.6c-3.2-0.4-6.1-1-8.8-1.7L381,381.3z M323.6,350.1c0-3.8-0.6-6.4-1.9-7.7c-1.3-1.4-3.7-2.1-7.3-2.2v-4.9
			h34.2v4.9c-3.2,0.1-5.5,0.8-6.9,2.3s-2.1,4-2.1,7.6v27.4c0,7,1.3,12.1,4,15.5c2.7,3.4,6.7,5.1,12.1,5.1c6.1,0,10.3-2,12.8-5.9
			c2.4-3.9,3.7-11.2,3.7-22v-5.5c0-11.1-0.6-18-1.9-20.6c-1.3-2.7-3.7-4-7.3-4h-0.4v-4.9h23.8v4.9c-3.3,0-5.5,1.1-6.7,3.1
			c-1.1,2.1-1.7,7.9-1.7,17.3v1c0,0.7,0,2.4,0,5.2c0,2.7,0,5.1,0,7.1c0,11.3-2.1,19.5-6.3,24.4c-4.3,4.9-11.2,7.4-20.9,7.4
			c-9.2,0-16.1-2.3-20.5-6.9c-4.4-4.6-6.6-11.7-6.6-21.3v-27.3H323.6z M275.5,387c-1.9,0.1-3.4,0.5-4.5,1.4
			c-1.1,0.8-1.6,2.1-1.6,3.7c0,2.1,0.8,3.8,2.3,5.2c1.5,1.3,3.5,2,5.9,2c3.8,0,6.4-1.4,8-4.1c1.5-2.8,2.3-8,2.3-15.8v-46.9
			c0-6-0.9-10-2.7-11.8c-1.9-2-5.6-2.9-11.2-2.9v-6.7h47.8v6.7c-4.8,0.1-8.1,0.9-9.9,2.5c-1.8,1.6-2.7,4.5-2.7,8.6V373
			c0,7.2-0.4,12.4-1.1,15.5c-0.8,3.1-2,5.7-3.7,8c-2.5,3.1-5.7,5.6-9.9,7.1c-4.1,1.6-9,2.4-14.7,2.4c-7.9,0-14.1-1.7-18.5-5.1
			c-4.3-3.4-6.6-8.2-6.6-14.3c0-4.3,1.1-7.6,3.1-10.1c2-2.5,4.8-3.7,8.3-3.7c2.9,0,5.2,0.9,7,2.8c1.8,1.8,2.6,4.3,2.6,7.3
			c0,0.4,0,1-0.1,1.7C275.7,385.2,275.6,386,275.5,387z"/>
		<path class="st0" d="M925.9,381.3h5.8c0.8,6.2,2.7,11,5.7,14.3c3.1,3.5,6.9,5.2,11.5,5.2c3.6,0,6.5-1.1,8.8-3.2
			c2.3-2.1,3.4-4.9,3.4-8.3c0-2.7-0.9-5-2.6-6.8c-1.7-1.9-5.3-4-10.8-6.4c-8.2-3.7-13.6-7.1-16.2-10.1c-2.5-3-3.8-6.8-3.8-11.4
			c0-6.3,2.2-11.5,6.5-15.3c4.3-3.9,10.1-5.8,17.4-5.8c2.6,0,5.4,0.3,8.5,0.7c3.1,0.5,6.4,1.3,9.9,2.3v18.8h-5.5
			c-0.7-5.5-2.3-9.5-4.8-12.2c-2.5-2.7-5.8-4.1-10-4.1c-2.9,0-5.4,0.9-7.3,2.7c-2,1.8-2.9,4-2.9,6.8c0,2.6,0.9,4.7,2.8,6.6
			c1.8,1.8,5.9,4.1,12,6.8c7.4,3.3,12.3,6.4,14.8,9.5s3.7,7,3.7,11.8c0,7.2-2.4,12.7-7.1,16.7c-4.7,3.9-11.5,5.8-20.3,5.8
			c-3.4,0-6.7-0.2-9.9-0.6c-3.2-0.4-6.1-1-8.8-1.7L925.9,381.3z M859.9,404v-5c3.9,0,6.6-0.7,8-2c1.4-1.3,2.1-4,2.1-7.9V350
			c0-4-0.7-6.6-2.1-7.9c-1.4-1.3-4.1-2-8-2v-4.9h35.3v4.9c-3.9,0-6.5,0.7-7.9,2c-1.4,1.3-2.1,4-2.1,7.9v16.3l15-14.4
			c1.9-1.9,3.6-3.7,4.8-5.4c1.3-1.7,1.9-3,1.9-3.7c0-0.9-0.4-1.6-1.4-1.9c-0.9-0.4-2.6-0.6-5.2-0.8v-4.9h28.8v4.9
			c-3.2,0.2-6.5,1.4-10,3.4c-3.5,2.1-8.3,6-14.5,11.9l-5,4.8l20.9,29.1c0,0,0.1,0.1,0.3,0.3c4.5,6.3,8.5,9.5,12,9.5
			c0.4,0,0.7,0,0.9,0s0.4,0,0.6-0.1v5l-15.5,0.6h-1.9c-1.8,0-3.5-1-5-2.9c0,0,0-0.1-0.1-0.1l-22.6-31.5l-4,4v15c0,4.1,0.7,6.8,2.1,8
			c1.3,1.2,4,1.9,7.9,1.9v5H859.9z M831.5,405.6c-9.8,0-17.6-3.2-23.5-9.7c-5.8-6.5-8.7-15.2-8.7-26.3c0-11,2.9-19.7,8.7-26.2
			s13.6-9.8,23.4-9.8c9.8,0,17.7,3.2,23.5,9.7s8.8,15.2,8.8,26.3c0,11-2.9,19.8-8.7,26.3C849.2,402.3,841.3,405.6,831.5,405.6z
			 M831.5,400.1c5,0,8.7-2.4,11-7.4c2.4-4.9,3.5-12.7,3.5-23.4c0-10.6-1.2-18.4-3.5-23.3c-2.3-4.9-6-7.4-11-7.4s-8.6,2.5-11,7.4
			c-2.3,4.9-3.5,12.7-3.5,23.3c0,10.7,1.2,18.5,3.5,23.4C822.8,397.7,826.5,400.1,831.5,400.1z M774.1,405.6
			c-9.9,0-17.7-3.2-23.5-9.7s-8.8-15.2-8.8-26.3c0-11,2.9-19.7,8.8-26.2c5.8-6.5,13.6-9.8,23.4-9.8c9.8,0,17.7,3.2,23.5,9.7
			c5.9,6.5,8.8,15.2,8.8,26.3c0,11-2.9,19.8-8.7,26.3C791.7,402.3,783.9,405.6,774.1,405.6z M774,400.1c5,0,8.7-2.4,11-7.4
			c2.4-4.9,3.5-12.7,3.5-23.4c0-10.6-1.2-18.4-3.5-23.3c-2.3-4.9-6-7.4-11-7.4s-8.6,2.5-10.9,7.4c-2.3,4.9-3.5,12.7-3.5,23.3
			c0,10.7,1.2,18.5,3.5,23.4C765.3,397.7,769,400.1,774,400.1z M651.4,404v-6.7c5.3,0,8.9-0.9,10.8-2.7c1.9-1.8,2.8-5.3,2.8-10.7
			v-52.7c0-5.4-0.9-8.9-2.8-10.7c-1.9-1.8-5.5-2.7-10.8-2.7v-6.7h41.1c8.3,0,14.5,0.2,18.6,0.6c4.2,0.4,7.5,1.1,9.9,2
			c4.8,1.8,8.4,4.3,10.8,7.5c2.4,3.2,3.7,7,3.7,11.3c0,5.6-2.2,10.2-6.6,13.7c-4.5,3.5-11,5.8-19.6,7c10.5,1.6,18.4,4.4,23.4,8.6
			c5.1,4.2,7.7,9.8,7.7,16.9c0,4.3-1.1,8.3-3.2,11.9c-2.1,3.7-5.1,6.6-8.9,8.8c-2.7,1.6-6.3,2.8-10.8,3.5c-4.5,0.7-11.2,1-20,1
			h-46.1V404z M685.6,350.9c0.5,0.1,1,0.1,1.5,0.1c0.6,0,1.5,0,2.6,0c7.4,0,13-1.4,16.9-4.2c3.8-2.8,5.8-6.9,5.8-12.2
			c0-5.2-1.9-9.3-5.6-12.2s-8.9-4.4-15.6-4.4c-0.6,0-1.6,0-3.3,0.1c-0.9,0.1-1.6,0.1-2.1,0.1c-0.1,3.8-0.2,8.1-0.2,12.7
			s-0.1,7.2-0.1,7.8v3.1L685.6,350.9z M685.7,357.9v9.8c0,8.8,0.1,15.2,0.3,19.1c0.2,3.9,0.6,6.3,1,7.2c0.6,1,1.4,1.7,2.5,2.1
			c1.1,0.4,3.1,0.6,5.9,0.6c7.1,0,12.5-1.7,16.2-5.2c3.7-3.4,5.6-8.4,5.6-14.9c0-6.3-2.1-11-6.4-14.1c-4.2-3.1-10.6-4.7-19.1-4.7
			c-0.2,0-1,0-2.3,0.1C688.1,357.9,686.9,357.9,685.7,357.9z"/>
		<path class="st1" d="M499.3,334c21.8-0.7,41.1-6.7,64.6-3.4c1.8,2.2,4.6,3.6,6.7,4c5.3,27.3,10.1,51.7,15.5,79
			c-12.7-3.5-24.7-3-36.5-1.6l-24.4,3.2c-3.3,0.3-6.5,0.6-9.8,0.7C510.1,388.6,504.7,361.3,499.3,334"/>
		<path class="st1" d="M636.4,307.3c-20.5,7.5-40.8,9.2-61.4,21.2c-1.3,3-2.9,3.8-4.6,4.9c5.4,27.3,10.3,52.8,15.7,80.1
			c10.2-7.8,21.2-11.8,32.4-14.9l23.9-6.1c3.4-0.9,6.7-2,10.1-3.2C647.1,361.9,641.7,334.6,636.4,307.3"/>
		<path class="st0" d="M570.1,331.6c-16.9-9.3-45.4,0.2-68.2,0.3c0.5-0.4,0.9-0.9,1.4-1.4C525.5,330.9,550.9,320.2,570.1,331.6"/>
		<path class="st0" d="M570.1,331.6c-15.2-12.3-41.9-2.8-62.9-4.1c0.4-0.4,0.8-0.9,1.2-1.3C529,328,555.7,316.8,570.1,331.6"/>
		<path class="st0" d="M570.1,331.6c-13.9-15.6-39.2-5.2-58.9-7.8c0.4-0.4,0.8-0.8,1.1-1.2C531.6,325.6,557.3,313.9,570.1,331.6"/>
		<path class="st0" d="M570.1,331.6c12.2-15,42.2-16.9,63.3-25.3c-0.6-0.3-1.2-0.5-1.7-0.8C611.1,314.2,583.5,313.8,570.1,331.6"/>
		<path class="st0" d="M570.1,331.6c9.4-17.1,37.8-18.2,56.7-27.4c-0.5-0.2-1.1-0.5-1.6-0.7C606.8,312.9,577.8,312.6,570.1,331.6"/>
		<path class="st0" d="M570.1,331.6c7-19.7,34.4-19.6,51.6-29.3c-0.4-0.3-1-0.5-1.5-0.7C603.5,311.6,575.2,310.4,570.1,331.6"/>
		<path class="st2" d="M654.9,364c-2.2-2.1-7.6-3-10.4-4.2c-2.8-1.2-6-3.2-9.1-3.2c-1.1,0-2-0.6-3-0.6c-3.5,0.1,2.6,3.3,3.4,3.3
			c2.1,0,7.1,3,8,4.7c1.4,2.7-13.7-0.8-17.4-0.7c-4.4,0.1-4.6,2.5-0.7,3.7c3.4,1.1,7.3,1.3,10.9,1.8c1.7,0.2,6.7-1,6.7,1.7
			c-3.8,0.1-7.8,1.1-11.7,1.2c-1.2,0-2.7,0.2-3.8,0.2c-0.6,0-10.6,1.3-8.3,3.5c1.2,1.2,2.8,1.3,4.6,1.3c6.4-0.1,12.8,0.3,19.3,0.2
			c0,2.7-11,1.4-11,7c0.1,2.5,11.4-0.7,12.7-0.7c3.2,0,6.3-0.1,9.5-0.2c0-0.3-0.1-0.7,0.1-1C657,376.8,655,367,654.9,364
			 M502.2,393.7c1.2-2.8,5.9-5.6,8.1-7.8c2.2-2.1,4.4-5.2,7.2-6.3c1-0.4,1.7-1.4,2.6-1.7c3.3-1.2-1.2,4.1-1.9,4.3
			c-2,0.8-5.4,5.5-5.6,7.3c-0.3,3,12.3-5.8,15.9-7.2c4.1-1.5,5.2,0.6,2.1,3.1c-2.7,2.3-6.3,4-9.5,5.8c-1.5,0.9-6.6,1.6-5.6,4.1
			c3.6-1.4,7.6-1.9,11.3-3.2c1.1-0.4,2.6-0.8,3.7-1.2c0.5-0.2,10.3-2.8,9,0.1c-0.7,1.5-2.1,2.2-3.7,2.9c-6,2.3-11.8,5.1-17.8,7.4
			c1,2.5,10.8-2.8,12.8,2.4c0.9,2.3-10.8,3.7-12.1,4.1c-3,1.1-5.9,2.3-8.9,3.4c-0.1-0.3-0.2-0.7-0.5-0.9
			C505.1,406.4,503.3,396.5,502.2,393.7z"/>
		<path class="st3" d="M563.7,330.9c4.1,1.7,7.9,1,11.4-2.2c5.3,27.1,10.6,54.3,15.9,81.4c-3.3,4.1-7.2,4.6-11.4,2.2
			C574.3,385.1,569,358,563.7,330.9"/>
		<path class="st0" d="M1101.5,386l3.7,2.4c-2,5.5-4.8,9.7-8.3,12.5c-3.5,2.9-7.6,4.3-12.3,4.3c-5.8,0-10.5-2.2-14-6.6
			c-3.6-4.4-5.3-10.3-5.3-17.6c0-7.9,2.1-14.4,6.5-19.5c4.3-5.1,9.9-7.6,16.6-7.6c4.6,0,8.3,1.1,11.3,3.4c2.9,2.2,4.4,5,4.4,8.3
			c0,2.2-0.7,4-2,5.5c-1.3,1.4-3.1,2.1-5.1,2.1c-0.9,0-2-0.2-2.9-0.5c-1.1-0.4-2.1-0.9-3.2-1.6c0.1-1.3,0.2-2.2,0.3-3
			c0.1-0.7,0.1-1.2,0.1-1.5c0-2.4-0.5-4.3-1.4-5.5c-0.9-1.4-2.2-2-3.9-2c-2.6,0-4.7,1.4-6.3,4.4c-1.6,2.9-2.4,6.9-2.4,11.8
			c0,6.2,1.1,11.1,3.3,14.6c2.2,3.6,5.2,5.4,8.9,5.4c2.2,0,4.3-0.8,6.3-2.3C1097.7,391.5,1099.6,389.2,1101.5,386 M1038,404v-4.8
			c1.6-0.1,2.7-0.6,3.3-1.3c0.6-0.7,0.9-2,0.9-3.9v-50.4c0-1.7-0.3-2.8-0.9-3.5c-0.6-0.6-1.7-1.1-3.3-1.3V334l17-1.4
			c-0.1,2.6-0.2,5.5-0.2,8.6s-0.1,7.9-0.1,14.2v9.6v28.9c0,2.1,0.3,3.4,0.8,4s1.6,1.1,3.3,1.3v4.8H1038z M1028.1,386l3.6,2.4
			c-2,5.5-4.8,9.7-8.3,12.5c-3.5,2.9-7.6,4.3-12.3,4.3c-5.8,0-10.5-2.2-14-6.6s-5.3-10.3-5.3-17.6c0-7.9,2.2-14.4,6.5-19.5
			s9.9-7.6,16.6-7.6c4.6,0,8.4,1.1,11.3,3.4c2.9,2.2,4.4,5,4.4,8.3c0,2.2-0.7,4-2.1,5.5c-1.3,1.4-3,2.1-5.1,2.1
			c-0.9,0-1.9-0.2-2.9-0.5c-1-0.4-2.1-0.9-3.1-1.6c0.1-1.3,0.2-2.2,0.3-3c0.1-0.7,0.1-1.2,0.1-1.5c0-2.4-0.5-4.3-1.4-5.5
			c-0.9-1.4-2.2-2-3.9-2c-2.6,0-4.8,1.4-6.3,4.4c-1.6,2.9-2.4,6.9-2.4,11.8c0,6.2,1.1,11.1,3.3,14.6c2.2,3.6,5.2,5.4,8.9,5.4
			c2.3,0,4.3-0.8,6.3-2.3C1024.2,391.5,1026.1,389.2,1028.1,386z"/>
		<path class="st1" d="M995.2,449.1h11.2l24.3,34.7v-23.7c0-2.5-0.2-4.6-0.6-6.1c-0.5-1.6-1.1-3.2-2.1-4.8h10.6
			c-0.9,1.6-1.6,3.2-2.1,4.7s-0.7,3.5-0.7,5.8v0.4v39.4h-5.7l-27.1-38.3v26.9c0,2.5,0.2,4.6,0.7,6.1c0.4,1.6,1.2,3.2,2.2,4.8h-10.6
			c1-1.6,1.7-3.2,2.1-4.8c0.4-1.5,0.6-3.6,0.6-6.1V460c0-2.5-0.2-4.6-0.6-6.1C996.8,452.4,996.1,450.8,995.2,449.1 M952.7,449.1
			h19.6c1.9,0,3.4,0.1,4.6,0.1c1.2,0.1,2,0.2,2.3,0.3c2.8,1.1,4.9,2.4,6.3,4.3c1.4,1.8,2.1,4.2,2.1,6.9c0,3.5-1,6.3-3,8.5
			c-2,2.2-4.9,3.6-8.7,4.4l11.3,17.2c1.1,1.6,2.2,3,3.5,4.5c1.3,1.4,2.8,2.7,4.3,3.9h-13.6l-16.3-25.5v14.5c0,2.5,0.2,4.6,0.7,6.1
			c0.4,1.6,1.1,3.2,2.1,4.8h-15.3c1-1.7,1.7-3.3,2.2-4.9c0.5-1.6,0.7-3.7,0.7-6.1V460c0-2.4-0.2-4.5-0.7-6
			C954.5,452.5,953.7,450.8,952.7,449.1z M965.2,452.3v20h3.7c2.9,0,5-0.9,6.4-2.4c1.3-1.6,2-4.1,2-7.6c0-3.4-0.6-6-2-7.5
			c-1.3-1.6-3.5-2.4-6.4-2.4h-3.7V452.3z M903.7,449.1h15.1c-0.9,1.6-1.6,3.1-2,4.7c-0.4,1.5-0.6,3.6-0.6,6.1v22.7
			c0,5,0.8,8.6,2.5,10.7c1.7,2.1,4.4,3.1,8.2,3.1c2.6,0,4.9-0.5,6.7-1.4s3.1-2.2,4-4c0.4-0.9,0.7-1.8,0.8-2.9
			c0.2-1.1,0.3-2.7,0.3-4.9v-3.1v-20.2c0-2.3-0.2-4.3-0.6-5.9c-0.4-1.5-1.1-3.2-2-4.8h11.8c-1.1,1.7-1.8,3.3-2.3,4.9
			c-0.5,1.6-0.7,3.6-0.7,6.1v22.5c0,2.9-0.1,5.1-0.4,6.5c-0.3,1.5-0.7,2.8-1.3,3.9c-1.2,2.3-3.4,4.2-6.4,5.4
			c-3,1.3-6.8,1.9-11.2,1.9c-6.6,0-11.3-1.3-14.3-3.7c-3-2.5-4.5-6.5-4.5-11.9v-24.7c0-2.5-0.2-4.5-0.7-6.1
			C905.5,452.4,904.7,450.8,903.7,449.1z M860.8,449.1h40.7v11.2l-7.8-6.3c-0.4-0.3-1-0.5-1.6-0.7c-0.7-0.2-1.3-0.3-1.9-0.3h-4.3
			v35.1c0,2.5,0.2,4.6,0.7,6.1c0.5,1.6,1.2,3.2,2.2,4.8h-15.2c0.9-1.6,1.6-3.2,2.1-4.8c0.5-1.5,0.7-3.6,0.7-6.1V453H872
			c-0.6,0-1.2,0.1-1.8,0.3c-0.6,0.2-1.1,0.4-1.5,0.7l-7.8,6.3v-11.2H860.8z M823.4,449.1h32.2V460l-7.6-6c-0.7-0.5-1.4-0.8-2.1-1.1
			c-0.7-0.2-1.8-0.3-3.3-0.3H842h-6.3v19.2h5.6c1.1,0,2-0.1,2.8-0.4c0.8-0.2,1.6-0.7,2.6-1.4l5.5-4v15l-6.4-4.5
			c-0.6-0.4-1.2-0.7-1.9-0.9c-0.6-0.1-1.7-0.2-3-0.2h-5.1v20.3h7.6c1,0,1.8-0.1,2.6-0.4c0.7-0.2,1.5-0.6,2.2-1.2l8.8-6.6l-1.5,11.7
			h-32c1-1.6,1.7-3.2,2.1-4.8c0.4-1.5,0.6-3.6,0.6-6.1v-28.1c0-2.5-0.2-4.6-0.6-6.1C825.1,452.4,824.4,450.8,823.4,449.1z
			 M781,449.1h19.5c1.9,0,3.5,0.1,4.6,0.1c1.2,0.1,1.9,0.2,2.3,0.3c2.8,1.1,4.9,2.4,6.3,4.3c1.4,1.8,2.1,4.2,2.1,6.9
			c0,3.5-1,6.3-2.9,8.5c-2,2.2-4.9,3.6-8.7,4.4l11.3,17.2c1.1,1.6,2.2,3,3.6,4.5c1.3,1.4,2.8,2.7,4.3,3.9h-13.6l-16.3-25.5v14.5
			c0,2.5,0.2,4.6,0.6,6.1c0.5,1.6,1.2,3.2,2.1,4.8H781c1-1.7,1.7-3.3,2.1-4.9c0.5-1.6,0.7-3.7,0.7-6.1V460c0-2.4-0.2-4.5-0.7-6
			C782.7,452.5,782,450.8,781,449.1z M793.5,452.3v20h3.7c2.9,0,5-0.9,6.4-2.4c1.4-1.6,2-4.1,2-7.6c0-3.4-0.7-6-2-7.5
			c-1.3-1.6-3.4-2.4-6.4-2.4h-3.7V452.3z M671.7,449.1h19.8c8.2,0,14.5,2.1,18.7,6.2c4.3,4.1,6.5,10.1,6.5,18
			c0,4.1-0.6,7.7-1.8,10.9c-1.2,3.2-3.1,6.1-5.6,8.7c-2.2,2.3-4.8,3.9-7.7,4.8c-2.9,0.9-7,1.4-12.4,1.4h-17.5c1-1.7,1.7-3.3,2.2-4.9
			s0.6-3.7,0.6-6.1V460c0-2.4-0.2-4.5-0.6-6C673.4,452.5,672.6,450.8,671.7,449.1z M684.1,452.7v43h7.5c4.6,0,8.2-1.8,10.6-5.5
			c2.5-3.6,3.7-8.9,3.7-15.9c0-7.5-1.2-13.1-3.7-16.5s-6.4-5.1-11.9-5.1H684.1z M650.8,448.2l14.5,42.1c0.6,1.8,1.4,3.5,2.3,4.9
			s2,2.8,3.3,3.9H654c0.9-1,1.5-1.9,1.9-2.6c0.4-0.7,0.6-1.3,0.6-1.9c0-0.5-0.3-1.7-0.8-3.4c0-0.1-0.1-0.1-0.1-0.2l-3.6-11.2h-14.1
			l-3.8,10.9c-0.4,1.1-0.7,2-0.9,2.6s-0.2,1-0.2,1.5c0,0.7,0.2,1.3,0.5,2c0.3,0.6,0.9,1.5,1.6,2.3h-12c2.2-2.2,4.1-5.5,5.7-9.6
			c0.2-0.4,0.3-0.7,0.3-0.9l15.3-38.6L650.8,448.2z M645.2,458.1l-6.2,18h11.9L645.2,458.1z M588.6,449.1h32.2V460l-7.6-6
			c-0.7-0.5-1.4-0.8-2.1-1.1c-0.7-0.2-1.8-0.3-3.3-0.3h-0.7h-6.3v19.2h5.6c1.1,0,2-0.1,2.8-0.4c0.7-0.2,1.6-0.7,2.6-1.4l5.5-4v15
			l-6.4-4.5c-0.6-0.4-1.2-0.7-1.9-0.9c-0.7-0.1-1.7-0.2-3.1-0.2h-5.1v20.3h7.5c1,0,1.8-0.1,2.6-0.4c0.8-0.2,1.5-0.6,2.3-1.2l8.8-6.6
			l-1.6,11.7h-31.9c1-1.6,1.7-3.2,2.1-4.8c0.5-1.5,0.7-3.6,0.7-6.1v-28.1c0-2.5-0.2-4.6-0.7-6.1
			C590.3,452.4,589.6,450.8,588.6,449.1z M546.2,449.1h19.6c1.9,0,3.5,0.1,4.6,0.1c1.2,0.1,2,0.2,2.4,0.3c2.8,1.1,4.9,2.4,6.3,4.3
			c1.4,1.8,2.1,4.2,2.1,6.9c0,3.5-1,6.3-2.9,8.5c-2,2.2-4.9,3.6-8.6,4.4l11.3,17.2c1,1.6,2.2,3,3.5,4.5c1.3,1.4,2.7,2.7,4.2,3.9
			h-13.6l-16.3-25.5v14.5c0,2.5,0.2,4.6,0.7,6.1c0.4,1.6,1.2,3.2,2.1,4.8h-15.3c1-1.7,1.8-3.3,2.2-4.9c0.4-1.6,0.7-3.7,0.7-6.1V460
			c0-2.4-0.3-4.5-0.7-6C547.9,452.5,547.1,450.8,546.2,449.1z M558.6,452.3v20h3.7c2.9,0,5-0.9,6.3-2.4c1.4-1.6,2.1-4.1,2.1-7.6
			c0-3.4-0.7-6-2-7.5c-1.3-1.6-3.5-2.4-6.4-2.4h-3.7V452.3z M443.9,449.1h40.8v11.2l-7.9-6.3c-0.4-0.3-0.9-0.5-1.6-0.7
			c-0.6-0.2-1.3-0.3-1.9-0.3H469v35.1c0,2.5,0.2,4.6,0.7,6.1c0.5,1.6,1.2,3.2,2.2,4.8h-15.2c1-1.6,1.7-3.2,2.1-4.8
			c0.4-1.5,0.6-3.6,0.6-6.1V453H455c-0.6,0-1.2,0.1-1.8,0.3c-0.6,0.2-1.1,0.4-1.4,0.7l-7.9,6.3L443.9,449.1L443.9,449.1z
			 M396.9,449.1h11.2l24.3,34.7v-23.7c0-2.5-0.2-4.6-0.6-6.1c-0.4-1.6-1.1-3.2-2.1-4.8h10.6c-1,1.6-1.7,3.2-2.1,4.7
			s-0.7,3.5-0.7,5.8v0.4v39.4h-5.7l-27.1-38.3v26.9c0,2.5,0.2,4.6,0.7,6.1c0.4,1.6,1.1,3.2,2.1,4.8h-10.6c1-1.6,1.7-3.2,2.1-4.8
			c0.4-1.5,0.7-3.6,0.7-6.1V460c0-2.5-0.2-4.6-0.7-6.1C398.6,452.4,397.9,450.8,396.9,449.1z M357.4,449.1h32.2V460l-7.6-6
			c-0.7-0.5-1.4-0.8-2.1-1.1c-0.7-0.2-1.8-0.3-3.3-0.3H376h-6.3v19.2h5.6c1.1,0,2-0.1,2.8-0.4c0.8-0.2,1.6-0.7,2.6-1.4l5.5-4v15
			l-6.4-4.5c-0.6-0.4-1.2-0.7-1.9-0.9c-0.6-0.1-1.7-0.2-3-0.2h-5.2v20.3h7.6c1,0,1.8-0.1,2.6-0.4c0.7-0.2,1.5-0.6,2.2-1.2l8.8-6.6
			l-1.6,11.7h-31.9c1-1.6,1.7-3.2,2.1-4.8c0.4-1.5,0.6-3.6,0.6-6.1v-28.1c0-2.5-0.2-4.6-0.6-6.1C359,452.4,358.3,450.8,357.4,449.1z
			 M315,449.1h19.5c1.9,0,3.5,0.1,4.6,0.1c1.2,0.1,2,0.2,2.3,0.3c2.8,1.1,4.9,2.4,6.3,4.3c1.4,1.8,2,4.2,2,6.9c0,3.5-1,6.3-2.9,8.5
			c-2,2.2-4.8,3.6-8.6,4.4l11.3,17.2c1,1.6,2.2,3,3.5,4.5c1.3,1.4,2.7,2.7,4.2,3.9h-13.6l-16.3-25.5v14.5c0,2.5,0.2,4.6,0.7,6.1
			c0.4,1.6,1.1,3.2,2.1,4.8H315c1-1.7,1.7-3.3,2.2-4.9c0.5-1.6,0.7-3.7,0.7-6.1V460c0-2.4-0.2-4.5-0.7-6S315.9,450.8,315,449.1z
			 M327.4,452.3v20h3.8c2.8,0,5-0.9,6.3-2.4c1.4-1.6,2-4.1,2-7.6c0-3.4-0.7-6-2-7.5c-1.3-1.6-3.5-2.4-6.3-2.4h-3.8V452.3z"/>
		<rect x="220" y="466.1" class="st4" width="87.3" height="10.2"/>
		<rect x="1046.7" y="466.1" class="st4" width="93.3" height="10.2"/>
		<polygon class="st4" points="499.4,477.5 511.6,465.4 523.7,477.5 511.6,489.7 		"/>
		<polygon class="st4" points="736.1,477.5 748.2,465.4 760.4,477.5 748.2,489.7 		"/>
		<polygon class="st0" points="1110.5,329.9 1110.5,314.8 1105.1,314.8 1105.1,311.7 1119.6,311.7 1119.6,314.8 1114.2,314.8 
			1114.2,329.9 		"/>
		<polygon class="st0" points="1121.9,329.9 1121.9,311.7 1127.4,311.7 1130.7,324.1 1133.9,311.7 1139.4,311.7 1139.4,329.9 
			1136,329.9 1136,315.6 1132.4,329.9 1128.9,329.9 1125.3,315.6 1125.3,329.9 		"/>
	</g>
</g>
</svg>
