<?xml version="1.0" encoding="utf-8"?>
<!-- Generator: Adobe Illustrator 19.1.0, SVG Export Plug-In . SVG Version: 6.00 Build 0)  -->
<svg version="1.1" id="Layer_1" xmlns="http://www.w3.org/2000/svg" xmlns:xlink="http://www.w3.org/1999/xlink" x="0px" y="0px"
	 viewBox="0 0 657.7 206.5" style="enable-background:new 0 0 657.7 206.5;" xml:space="preserve">
<style type="text/css">
	.st0{fill-rule:evenodd;clip-rule:evenodd;fill:#120E0D;}
	.st1{fill-rule:evenodd;clip-rule:evenodd;fill:#EA7B24;}
</style>
<g>
	<path class="st0" d="M171.5,131l2.4-0.2c0.1,1,0.4,1.7,0.8,2.4c0.4,0.6,1.1,1.1,1.9,1.5c0.9,0.4,1.8,0.6,2.9,0.6
		c1,0,1.8-0.1,2.6-0.4c0.7-0.3,1.3-0.7,1.7-1.2c0.4-0.5,0.5-1,0.5-1.6c0-0.6-0.2-1.1-0.5-1.6c-0.3-0.4-0.9-0.8-1.7-1.1
		c-0.5-0.2-1.6-0.5-3.4-0.9c-1.8-0.4-3-0.8-3.7-1.2c-0.9-0.5-1.6-1.1-2-1.8c-0.4-0.7-0.7-1.5-0.7-2.4c0-1,0.3-1.9,0.8-2.7
		c0.5-0.8,1.4-1.5,2.4-1.9c1.1-0.4,2.2-0.7,3.5-0.7c1.4,0,2.7,0.2,3.8,0.7c1.1,0.5,1.9,1.1,2.5,2c0.6,0.9,0.9,1.9,0.9,3l-2.4,0.2
		c-0.1-1.2-0.6-2.1-1.3-2.7c-0.8-0.6-1.9-0.9-3.3-0.9c-1.5,0-2.6,0.3-3.3,0.8c-0.7,0.6-1.1,1.2-1.1,2c0,0.7,0.2,1.3,0.7,1.7
		c0.5,0.4,1.8,0.9,3.8,1.4c2.1,0.5,3.5,0.9,4.2,1.2c1.1,0.5,1.9,1.2,2.5,1.9c0.5,0.8,0.8,1.7,0.8,2.7c0,1-0.3,2-0.9,2.9
		c-0.6,0.9-1.4,1.6-2.5,2.1c-1.1,0.5-2.3,0.7-3.7,0.7c-1.7,0-3.2-0.2-4.4-0.8c-1.2-0.5-2.1-1.3-2.8-2.3
		C171.9,133.4,171.6,132.3,171.5,131L171.5,131z M195.1,137.1v-16.9h-6.3V118h15.1v2.3h-6.3v16.9H195.1L195.1,137.1z M206.6,137.1
		V118h8.5c1.7,0,3,0.2,3.9,0.5c0.9,0.3,1.6,0.9,2.1,1.8c0.5,0.9,0.8,1.8,0.8,2.9c0,1.4-0.4,2.5-1.3,3.4c-0.9,0.9-2.2,1.5-4.1,1.8
		c0.7,0.3,1.2,0.6,1.5,1c0.7,0.7,1.4,1.5,2.1,2.5l3.3,5.2h-3.2l-2.5-4c-0.7-1.1-1.3-2-1.8-2.6c-0.5-0.6-0.9-1-1.3-1.3
		c-0.4-0.2-0.8-0.4-1.2-0.5c-0.3-0.1-0.8-0.1-1.4-0.1h-2.9v8.5H206.6L206.6,137.1z M209.1,126.5h5.4c1.2,0,2.1-0.1,2.7-0.4
		c0.7-0.2,1.1-0.6,1.5-1.1c0.3-0.5,0.5-1.1,0.5-1.7c0-0.9-0.3-1.6-1-2.2c-0.7-0.6-1.7-0.9-3.1-0.9h-6V126.5L209.1,126.5z
		 M223.7,137.1l7.3-19.1h2.7l7.8,19.1h-2.9l-2.2-5.8h-8l-2.1,5.8H223.7L223.7,137.1z M229.2,129.3h6.5l-2-5.3
		c-0.6-1.6-1.1-2.9-1.4-4c-0.2,1.2-0.6,2.4-1,3.7L229.2,129.3L229.2,129.3z M248.5,137.1v-16.9h-6.3V118h15.1v2.3H251v16.9H248.5
		L248.5,137.1z M257.8,137.1l7.3-19.1h2.7l7.8,19.1h-2.9l-2.2-5.8h-8l-2.1,5.8H257.8L257.8,137.1z M263.3,129.3h6.5l-2-5.3
		c-0.6-1.6-1.1-2.9-1.4-4c-0.2,1.2-0.6,2.4-1,3.7L263.3,129.3L263.3,129.3z M285.2,137.1V118h8.5c1.7,0,3,0.2,3.9,0.5
		c0.9,0.3,1.6,0.9,2.1,1.8c0.5,0.9,0.8,1.8,0.8,2.9c0,1.4-0.4,2.5-1.3,3.4c-0.9,0.9-2.2,1.5-4.1,1.8c0.7,0.3,1.2,0.6,1.5,1
		c0.7,0.7,1.4,1.5,2.1,2.5l3.3,5.2h-3.2l-2.5-4c-0.7-1.1-1.3-2-1.8-2.6c-0.5-0.6-0.9-1-1.3-1.3c-0.4-0.2-0.8-0.4-1.2-0.5
		c-0.3-0.1-0.8-0.1-1.4-0.1h-2.9v8.5H285.2L285.2,137.1z M287.7,126.5h5.4c1.2,0,2.1-0.1,2.7-0.4c0.7-0.2,1.1-0.6,1.5-1.1
		c0.3-0.5,0.5-1.1,0.5-1.7c0-0.9-0.3-1.6-1-2.2c-0.7-0.6-1.7-0.9-3.1-0.9h-6V126.5L287.7,126.5z M304.5,137.1V118h13.8v2.3H307v5.9
		h10.6v2.2H307v6.5h11.7v2.3H304.5L304.5,137.1z M327.1,137.1v-16.9h-6.3V118H336v2.3h-6.3v16.9H327.1L327.1,137.1z M336.5,137.1
		l7.3-19.1h2.7l7.8,19.1h-2.9l-2.2-5.8h-8l-2.1,5.8H336.5L336.5,137.1z M342,129.3h6.5l-2-5.3c-0.6-1.6-1.1-2.9-1.4-4
		c-0.2,1.2-0.6,2.4-1,3.7L342,129.3L342,129.3z M356.8,137.1V118h2.5v19.1H356.8L356.8,137.1z M363.7,137.1V118h2.5v16.9h9.4v2.3
		H363.7L363.7,137.1z M384,137.1l7.3-19.1h2.7l7.8,19.1H399l-2.2-5.8h-8l-2.1,5.8H384L384,137.1z M389.5,129.3h6.5l-2-5.3
		c-0.6-1.6-1.1-2.9-1.4-4c-0.2,1.2-0.6,2.4-1,3.7L389.5,129.3L389.5,129.3z M403.9,137.1V118h2.6l10,15v-15h2.4v19.1h-2.6l-10-15v15
		H403.9L403.9,137.1z M423.2,137.1V118h6.6c1.5,0,2.6,0.1,3.4,0.3c1.1,0.2,2,0.7,2.8,1.4c1,0.9,1.8,1.9,2.3,3.3
		c0.5,1.3,0.8,2.8,0.8,4.5c0,1.5-0.2,2.7-0.5,3.9c-0.3,1.1-0.8,2.1-1.3,2.8c-0.5,0.7-1.1,1.3-1.7,1.7c-0.6,0.4-1.4,0.7-2.3,1
		c-0.9,0.2-1.9,0.3-3.1,0.3H423.2L423.2,137.1z M425.7,134.9h4.1c1.3,0,2.3-0.1,3-0.3c0.7-0.2,1.3-0.6,1.7-1
		c0.6-0.6,1.1-1.4,1.4-2.4c0.3-1,0.5-2.2,0.5-3.7c0-2-0.3-3.5-1-4.6c-0.7-1.1-1.5-1.8-2.4-2.2c-0.7-0.3-1.8-0.4-3.3-0.4h-4V134.9
		L425.7,134.9z M454.8,137.1v-16.9h-6.3V118h15.1v2.3h-6.3v16.9H454.8L454.8,137.1z M466.3,137.1V118h13.8v2.3h-11.3v5.9h10.6v2.2
		h-10.6v6.5h11.7v2.3H466.3L466.3,137.1z M497.6,130.4l2.5,0.6c-0.5,2.1-1.5,3.7-2.9,4.8c-1.4,1.1-3.1,1.6-5.1,1.6
		c-2.1,0-3.7-0.4-5-1.3c-1.3-0.8-2.3-2.1-2.9-3.6c-0.7-1.6-1-3.3-1-5.1c0-2,0.4-3.7,1.1-5.2c0.8-1.5,1.8-2.6,3.2-3.4
		c1.4-0.8,2.9-1.2,4.6-1.2c1.9,0,3.5,0.5,4.8,1.5c1.3,1,2.2,2.3,2.7,4.1l-2.5,0.6c-0.4-1.4-1.1-2.4-1.9-3c-0.8-0.6-1.9-1-3.2-1
		c-1.5,0-2.7,0.4-3.7,1.1c-1,0.7-1.7,1.7-2.1,2.8c-0.4,1.2-0.6,2.4-0.6,3.7c0,1.6,0.2,3,0.7,4.3c0.5,1.2,1.2,2.1,2.2,2.7
		c1,0.6,2.1,0.9,3.2,0.9c1.4,0,2.6-0.4,3.6-1.2C496.6,133.3,497.3,132,497.6,130.4L497.6,130.4z M503.4,137.1V118h2.5v7.9h9.9V118
		h2.5v19.1h-2.5v-9h-9.9v9H503.4L503.4,137.1z M522.6,137.1V118h2.6l10,15v-15h2.4v19.1H535l-10-15v15H522.6L522.6,137.1z
		 M541.1,127.8c0-3.2,0.9-5.7,2.6-7.5c1.7-1.8,3.9-2.7,6.6-2.7c1.8,0,3.4,0.4,4.8,1.3c1.4,0.8,2.5,2,3.2,3.5
		c0.7,1.5,1.1,3.2,1.1,5.1c0,1.9-0.4,3.7-1.2,5.2c-0.8,1.5-1.9,2.7-3.3,3.5c-1.4,0.8-3,1.2-4.6,1.2c-1.8,0-3.4-0.4-4.8-1.3
		c-1.4-0.9-2.5-2.1-3.2-3.6C541.5,131.1,541.1,129.5,541.1,127.8L541.1,127.8z M543.7,127.9c0,2.3,0.6,4.1,1.9,5.4
		c1.2,1.3,2.8,2,4.7,2c1.9,0,3.5-0.7,4.7-2c1.2-1.3,1.8-3.2,1.8-5.7c0-1.6-0.3-2.9-0.8-4.1c-0.5-1.2-1.3-2.1-2.3-2.7
		c-1-0.6-2.1-1-3.4-1c-1.8,0-3.3,0.6-4.6,1.8C544.4,122.9,543.7,125,543.7,127.9L543.7,127.9z M562.5,137.1V118h2.5v16.9h9.4v2.3
		H562.5L562.5,137.1z M576.7,127.8c0-3.2,0.8-5.7,2.6-7.5c1.7-1.8,3.9-2.7,6.6-2.7c1.8,0,3.4,0.4,4.8,1.3c1.4,0.8,2.5,2,3.2,3.5
		c0.7,1.5,1.1,3.2,1.1,5.1c0,1.9-0.4,3.7-1.2,5.2c-0.8,1.5-1.9,2.7-3.3,3.5c-1.4,0.8-3,1.2-4.6,1.2c-1.8,0-3.4-0.4-4.8-1.3
		c-1.4-0.9-2.5-2.1-3.2-3.6C577.1,131.1,576.7,129.5,576.7,127.8L576.7,127.8z M579.3,127.9c0,2.3,0.6,4.1,1.9,5.4
		c1.2,1.3,2.8,2,4.7,2c1.9,0,3.5-0.7,4.7-2c1.2-1.3,1.9-3.2,1.9-5.7c0-1.6-0.3-2.9-0.8-4.1c-0.5-1.2-1.3-2.1-2.3-2.7
		c-1-0.6-2.2-1-3.4-1c-1.8,0-3.3,0.6-4.6,1.8C580,122.9,579.3,125,579.3,127.9L579.3,127.9z M607.2,129.6v-2.2l8.1,0v7.1
		c-1.2,1-2.5,1.7-3.8,2.2c-1.3,0.5-2.7,0.7-4.1,0.7c-1.9,0-3.6-0.4-5.1-1.2c-1.5-0.8-2.7-2-3.5-3.5c-0.8-1.5-1.2-3.2-1.2-5.1
		c0-1.9,0.4-3.6,1.2-5.2c0.8-1.6,1.9-2.8,3.4-3.6c1.5-0.8,3.1-1.2,5-1.2c1.4,0,2.6,0.2,3.7,0.7c1.1,0.4,2,1.1,2.6,1.9
		c0.6,0.8,1.1,1.8,1.5,3.1l-2.3,0.6c-0.3-1-0.6-1.7-1.1-2.3c-0.4-0.6-1-1-1.8-1.3c-0.8-0.3-1.7-0.5-2.6-0.5c-1.2,0-2.2,0.2-3,0.5
		c-0.9,0.4-1.5,0.8-2,1.4c-0.5,0.6-0.9,1.2-1.2,1.9c-0.5,1.2-0.7,2.5-0.7,3.8c0,1.7,0.3,3.1,0.9,4.3c0.6,1.1,1.4,2,2.6,2.6
		c1.1,0.6,2.3,0.8,3.6,0.8c1.1,0,2.2-0.2,3.2-0.6c1-0.4,1.8-0.9,2.4-1.3v-3.6H607.2L607.2,129.6z M624.4,137.1V129l-7.4-11h3.1
		l3.8,5.8c0.7,1.1,1.3,2.2,1.9,3.2c0.6-1,1.3-2.1,2.1-3.4l3.7-5.6h2.9l-7.6,11v8.1H624.4z"/>
	<path class="st0" d="M171.5,162.3l2.4-0.2c0.1,1,0.4,1.7,0.8,2.4c0.4,0.6,1.1,1.1,1.9,1.5c0.9,0.4,1.8,0.6,2.9,0.6
		c1,0,1.8-0.1,2.6-0.4c0.7-0.3,1.3-0.7,1.7-1.2c0.4-0.5,0.5-1,0.5-1.6c0-0.6-0.2-1.1-0.5-1.6c-0.3-0.4-0.9-0.8-1.7-1.1
		c-0.5-0.2-1.6-0.5-3.4-0.9c-1.8-0.4-3-0.8-3.7-1.2c-0.9-0.5-1.6-1.1-2-1.8c-0.4-0.7-0.7-1.5-0.7-2.4c0-1,0.3-1.9,0.8-2.7
		c0.5-0.8,1.4-1.5,2.4-1.9c1.1-0.4,2.2-0.6,3.5-0.6c1.4,0,2.7,0.2,3.8,0.7c1.1,0.5,1.9,1.1,2.5,2c0.6,0.9,0.9,1.9,0.9,3l-2.4,0.2
		c-0.1-1.2-0.6-2.1-1.3-2.7c-0.8-0.6-1.9-0.9-3.3-0.9c-1.5,0-2.6,0.3-3.3,0.8c-0.7,0.6-1.1,1.2-1.1,2c0,0.7,0.2,1.3,0.7,1.7
		c0.5,0.4,1.8,0.9,3.8,1.4c2.1,0.5,3.5,0.9,4.2,1.2c1.1,0.5,1.9,1.2,2.5,1.9c0.5,0.8,0.8,1.7,0.8,2.7c0,1-0.3,2-0.9,2.9
		c-0.6,0.9-1.4,1.6-2.5,2.1c-1.1,0.5-2.3,0.7-3.7,0.7c-1.7,0-3.2-0.2-4.4-0.8c-1.2-0.5-2.1-1.3-2.8-2.3
		C171.9,164.7,171.6,163.6,171.5,162.3L171.5,162.3z M190.3,168.5v-19.1h13.8v2.3h-11.3v5.9h10.6v2.2h-10.6v6.5h11.7v2.3H190.3
		L190.3,168.5z M208.1,168.5v-19.1h8.5c1.7,0,3,0.2,3.9,0.5c0.9,0.3,1.6,0.9,2.1,1.8c0.5,0.9,0.8,1.8,0.8,2.9c0,1.4-0.4,2.5-1.3,3.4
		c-0.9,0.9-2.2,1.5-4.1,1.8c0.7,0.3,1.2,0.6,1.5,1c0.7,0.7,1.4,1.5,2.1,2.5l3.3,5.2h-3.2l-2.5-4c-0.7-1.1-1.3-2-1.8-2.6
		c-0.5-0.6-0.9-1-1.3-1.3c-0.4-0.2-0.8-0.4-1.2-0.5c-0.3-0.1-0.8-0.1-1.4-0.1h-2.9v8.5H208.1L208.1,168.5z M210.6,157.8h5.4
		c1.2,0,2.1-0.1,2.7-0.4c0.7-0.2,1.2-0.6,1.5-1.1c0.3-0.5,0.5-1.1,0.5-1.7c0-0.9-0.3-1.6-1-2.2c-0.7-0.6-1.7-0.9-3.1-0.9h-6V157.8
		L210.6,157.8z M232.8,168.5l-7.4-19.1h2.7l5,13.9c0.4,1.1,0.7,2.2,1,3.1c0.3-1,0.6-2.1,1-3.1l5.2-13.9h2.6l-7.5,19.1H232.8
		L232.8,168.5z M245.6,168.5v-19.1h2.5v19.1H245.6L245.6,168.5z M266.2,161.8l2.5,0.6c-0.5,2.1-1.5,3.7-2.9,4.8
		c-1.4,1.1-3.1,1.6-5.1,1.6c-2.1,0-3.7-0.4-5-1.3c-1.3-0.8-2.3-2.1-2.9-3.6c-0.7-1.6-1-3.3-1-5.1c0-2,0.4-3.7,1.1-5.2
		c0.8-1.5,1.8-2.6,3.3-3.4c1.4-0.8,2.9-1.2,4.6-1.2c1.9,0,3.5,0.5,4.8,1.5c1.3,1,2.2,2.3,2.7,4.1l-2.5,0.6c-0.4-1.4-1.1-2.4-1.9-3
		c-0.8-0.6-1.9-1-3.2-1c-1.5,0-2.7,0.4-3.7,1.1c-1,0.7-1.7,1.6-2.1,2.8c-0.4,1.2-0.6,2.4-0.6,3.7c0,1.6,0.2,3,0.7,4.3
		c0.5,1.2,1.2,2.1,2.2,2.7c1,0.6,2.1,0.9,3.3,0.9c1.4,0,2.6-0.4,3.6-1.2C265.2,164.6,265.8,163.4,266.2,161.8L266.2,161.8z
		 M271.9,168.5v-19.1h13.8v2.3h-11.3v5.9H285v2.2h-10.6v6.5h11.7v2.3H271.9L271.9,168.5z M288.8,162.3l2.4-0.2
		c0.1,1,0.4,1.7,0.8,2.4c0.4,0.6,1.1,1.1,1.9,1.5c0.9,0.4,1.8,0.6,2.9,0.6c1,0,1.8-0.1,2.6-0.4c0.7-0.3,1.3-0.7,1.6-1.2
		c0.4-0.5,0.5-1,0.5-1.6c0-0.6-0.2-1.1-0.5-1.6c-0.3-0.4-0.9-0.8-1.7-1.1c-0.5-0.2-1.6-0.5-3.4-0.9c-1.8-0.4-3-0.8-3.7-1.2
		c-0.9-0.5-1.6-1.1-2-1.8c-0.4-0.7-0.7-1.5-0.7-2.4c0-1,0.3-1.9,0.8-2.7c0.5-0.8,1.3-1.5,2.4-1.9c1.1-0.4,2.2-0.6,3.5-0.6
		c1.4,0,2.7,0.2,3.8,0.7c1.1,0.5,1.9,1.1,2.5,2c0.6,0.9,0.9,1.9,0.9,3l-2.4,0.2c-0.1-1.2-0.6-2.1-1.3-2.7c-0.8-0.6-1.9-0.9-3.3-0.9
		c-1.5,0-2.6,0.3-3.3,0.8c-0.7,0.6-1.1,1.2-1.1,2c0,0.7,0.2,1.3,0.7,1.7c0.5,0.4,1.8,0.9,3.8,1.4c2.1,0.5,3.5,0.9,4.2,1.2
		c1.1,0.5,1.9,1.2,2.5,1.9c0.5,0.8,0.8,1.7,0.8,2.7c0,1-0.3,2-0.9,2.9c-0.6,0.9-1.4,1.6-2.5,2.1c-1.1,0.5-2.3,0.7-3.7,0.7
		c-1.7,0-3.2-0.2-4.4-0.8c-1.2-0.5-2.1-1.3-2.8-2.3C289.2,164.7,288.8,163.6,288.8,162.3L288.8,162.3z M322.3,168.5v-19.1h7.2
		c1.3,0,2.2,0.1,2.9,0.2c0.9,0.2,1.7,0.5,2.4,0.9c0.6,0.4,1.1,1.1,1.5,1.8c0.4,0.8,0.6,1.7,0.6,2.6c0,1.6-0.5,3-1.5,4.1
		c-1,1.1-2.9,1.7-5.6,1.7h-4.9v7.8H322.3L322.3,168.5z M324.8,158.4h4.9c1.6,0,2.8-0.3,3.5-0.9c0.7-0.6,1-1.5,1-2.6
		c0-0.8-0.2-1.5-0.6-2.1c-0.4-0.6-0.9-0.9-1.6-1.1c-0.4-0.1-1.2-0.2-2.4-0.2h-4.9V158.4L324.8,158.4z M340.1,168.5v-19.1h8.5
		c1.7,0,3,0.2,3.9,0.5c0.9,0.3,1.6,0.9,2.1,1.8c0.5,0.9,0.8,1.8,0.8,2.9c0,1.4-0.4,2.5-1.3,3.4c-0.9,0.9-2.2,1.5-4.1,1.8
		c0.7,0.3,1.2,0.6,1.5,1c0.7,0.7,1.4,1.5,2.1,2.5l3.3,5.2h-3.2l-2.5-4c-0.7-1.1-1.3-2-1.8-2.6c-0.5-0.6-0.9-1-1.3-1.3
		c-0.4-0.2-0.8-0.4-1.2-0.5c-0.3-0.1-0.8-0.1-1.4-0.1h-2.9v8.5H340.1L340.1,168.5z M342.7,157.8h5.4c1.1,0,2.1-0.1,2.7-0.4
		c0.7-0.2,1.1-0.6,1.5-1.1c0.3-0.5,0.5-1.1,0.5-1.7c0-0.9-0.3-1.6-1-2.2c-0.7-0.6-1.7-0.9-3.1-0.9h-6V157.8L342.7,157.8z
		 M359.8,168.5v-19.1h2.5v19.1H359.8L359.8,168.5z M372.3,168.5l-7.4-19.1h2.7l5,13.9c0.4,1.1,0.7,2.2,1,3.1c0.3-1,0.6-2.1,1-3.1
		l5.2-13.9h2.6l-7.5,19.1H372.3L372.3,168.5z M382.5,168.5l7.3-19.1h2.7l7.8,19.1h-2.9l-2.2-5.8h-8l-2.1,5.8H382.5L382.5,168.5z
		 M388,160.6h6.5l-2-5.3c-0.6-1.6-1.1-2.9-1.4-4c-0.2,1.2-0.6,2.4-1,3.7L388,160.6L388,160.6z M407.3,168.5v-16.9H401v-2.3h15.2v2.3
		h-6.3v16.9H407.3L407.3,168.5z M418.8,168.5v-19.1h13.8v2.3h-11.3v5.9h10.6v2.2h-10.6v6.5h11.7v2.3H418.8L418.8,168.5z
		 M443.9,168.5v-19.1h2.5v16.9h9.4v2.3H443.9L443.9,168.5z M459.3,168.5v-19.1h2.5v19.1H459.3L459.3,168.5z M466.2,168.5v-19.1h3.8
		l4.5,13.5c0.4,1.3,0.7,2.2,0.9,2.8c0.2-0.7,0.6-1.7,1-3.1l4.6-13.3h3.4v19.1H482v-16l-5.6,16h-2.3l-5.5-16.3v16.3H466.2
		L466.2,168.5z M488.9,168.5v-19.1h2.5v19.1H488.9L488.9,168.5z M500.8,168.5v-16.9h-6.3v-2.3h15.2v2.3h-6.3v16.9H500.8L500.8,168.5
		z M512.3,168.5v-19.1h13.8v2.3h-11.3v5.9h10.6v2.2h-10.6v6.5h11.7v2.3H512.3L512.3,168.5z M530,168.5v-19.1h6.6
		c1.5,0,2.6,0.1,3.4,0.3c1.1,0.2,2,0.7,2.8,1.4c1,0.9,1.8,1.9,2.3,3.3c0.5,1.3,0.8,2.8,0.8,4.5c0,1.4-0.2,2.7-0.5,3.9
		c-0.3,1.1-0.8,2.1-1.3,2.8c-0.5,0.7-1.1,1.3-1.7,1.7c-0.6,0.4-1.4,0.7-2.3,1c-0.9,0.2-1.9,0.3-3.1,0.3H530L530,168.5z M532.6,166.2
		h4.1c1.3,0,2.2-0.1,3-0.4c0.7-0.2,1.3-0.6,1.7-1c0.6-0.6,1.1-1.4,1.4-2.4c0.3-1,0.5-2.2,0.5-3.7c0-2-0.3-3.5-1-4.6
		c-0.7-1.1-1.5-1.8-2.4-2.2c-0.7-0.3-1.8-0.4-3.3-0.4h-4V166.2z"/>
	<path class="st1" d="M96.2,30.2c4.3,0,8.6,0.4,12.7,1.1c-39.7,0.7-71.7,33.2-71.7,73c0,36,26.1,66,60.4,72c-0.5,0-0.9,0-1.4,0
		c-40.3,0-73.1-32.7-73.1-73.1C23.2,62.9,55.9,30.2,96.2,30.2z"/>
	<path class="st1" d="M69.2,57.9c2.9-2.2,6-4,9.1-5.6c-26.4,20.4-31.7,58.2-11.7,85.1c18,24.3,50.6,31.4,76.7,18.2
		c-0.3,0.2-0.6,0.5-0.9,0.7c-27.2,20.2-65.6,14.6-85.8-12.6C36.3,116.5,42,78.1,69.2,57.9z"/>
	<path class="st1" d="M76,76.4c1.7-2.6,3.6-5,5.6-7.2c-15.1,24.2-8.2,56.1,15.8,71.7c21.7,14.1,49.9,10.2,66.9-8.1
		c-0.2,0.3-0.4,0.6-0.5,0.8C148,158,115.5,164.8,91.3,149C67,133.2,60.2,100.7,76,76.4z"/>
	<path class="st1" d="M84.1,83.2c0.9-2.5,2-4.9,3.2-7.1c-7.6,23.2,4.8,48.4,28,56.4c20.9,7.3,43.6-1.8,54-20.5
		c-0.1,0.3-0.2,0.5-0.3,0.8c-8.2,23.5-33.8,35.8-57.2,27.7C88.3,132.3,75.9,106.7,84.1,83.2z"/>
	<path class="st1" d="M93.9,90.5c0.1-2.2,0.4-4.4,0.8-6.6c-0.4,20.6,15.9,37.9,36.6,38.6c18.7,0.7,34.8-12.3,38.5-30
		c0,0.2,0,0.5,0,0.7c-0.8,21-18.4,37.3-39.4,36.6C109.5,129.1,93.1,111.4,93.9,90.5z"/>
	<path class="st1" d="M104.2,92.7c-0.3-1.7-0.4-3.4-0.4-5.1c2.9,15.6,17.9,26.1,33.6,23.4c14.2-2.4,24.3-14.7,24.4-28.6
		c0,0.2,0.1,0.4,0.1,0.5c2.7,15.9-8,31-23.9,33.7C122,119.4,106.9,108.6,104.2,92.7z"/>
	<path class="st0" d="M132.4,103c4.4,0,9.1-0.8,13.3-3.6c6-4.1,7.9-10,7.9-15c0-8.2-3.6-14.2-13.7-22l-2.3-1.8
		c-6.9-5.4-8.9-8.5-8.9-12.4c0-5.2,3.8-8.9,9.9-8.9c5.4,0,7.9,2.6,9.1,4.2c1.8,2.2,2.2,4.9,2.2,5.7c0,1,0.2,1.6,0.8,1.6
		c0.7,0,0.9-0.7,0.9-2.6c0-6.7,0.3-9.2,0.3-10.4c0-0.6-0.4-0.9-1.2-1c-2.2-0.6-5.7-1.5-11.1-1.5c-11.6,0-19.3,6.8-19.3,16.3
		c0,7,3.2,13,12.4,20.5l3.8,3.1c6.9,5.6,8.2,9.6,8.2,13.8c0,4.6-3.7,9.8-11.2,9.8c-5.2,0-10.1-2.3-11.9-8.7
		c-0.4-1.5-0.7-3.3-0.7-4.4c0-0.7-0.1-1.5-0.8-1.5c-0.7,0-0.9,1-1,2.2c-0.1,1.4-0.4,6.6-0.4,11.3c0,1.9,0.3,2.3,1.6,2.9
		C123.8,102.4,127.6,103,132.4,103L132.4,103z M181.5,80.4c0,6.7,0,12.5-0.3,15.6c-0.3,2.2-0.7,3.5-2.2,3.9
		c-0.6,0.2-1.5,0.3-2.6,0.3c-0.9,0-1.2,0.4-1.2,0.8c0,0.5,0.5,0.8,1.4,0.8c2.9,0,7.9-0.3,9.6-0.3c2.1,0,7,0.3,11.9,0.3
		c0.8,0,1.4-0.3,1.4-0.8c0-0.3-0.3-0.8-1.2-0.8c-1.1,0-2.8-0.1-3.8-0.3c-2.2-0.3-2.6-1.7-2.8-3.8c-0.3-3.2-0.4-9-0.4-15.7V50.7
		l9.3,0.2c6.6,0.1,8.5,2.3,8.7,4.2l0.1,0.8c0.1,1.1,0.2,1.5,0.8,1.5c0.4,0,0.6-0.4,0.7-1.2c0-1.9,0.2-7.3,0.2-8.9
		c0-1.1-0.1-1.6-0.6-1.6c-0.2,0-0.8,0.2-2,0.3c-1.1,0.2-2.7,0.3-5,0.3h-29.8c-2.4,0-5.2-0.1-7.4-0.3c-1.8-0.3-2.6-0.9-3.2-0.9
		c-0.4,0-0.7,0.4-0.8,1.4c-0.2,0.6-1.6,7.7-1.6,8.9c0,0.8,0.2,1.2,0.7,1.2c0.5,0,0.7-0.3,0.8-1c0.2-0.5,0.5-1.5,1.3-2.5
		c1.1-1.6,2.8-2.2,7.1-2.2l10.9-0.3V80.4L181.5,80.4z M224.6,80.4c0,6.7,0,12.5-0.3,15.6c-0.3,2.2-0.7,3.5-2.2,3.9
		c-0.7,0.2-1.5,0.3-2.6,0.3c-0.9,0-1.2,0.4-1.2,0.8c0,0.5,0.5,0.8,1.4,0.8c2.9,0,7.6-0.3,9-0.3c1.1,0,7.2,0.3,11.4,0.3
		c0.9,0,1.5-0.3,1.5-0.8c0-0.3-0.3-0.8-0.9-0.8c-0.9,0-2.5-0.1-3.6-0.3c-2.3-0.3-2.6-1.7-2.8-3.9c-0.3-3.1-0.4-8.8-0.4-15.6v-1
		c0-0.4,0.2-0.6,0.6-0.6l6.6,0.2c0.5,0,0.9,0.1,1.3,0.5c0.9,1.1,4,6,6.9,10c4.1,5.7,6.8,9.1,10,10.8c1.9,1,3.9,1.5,8,1.5h7
		c0.9,0,1.4-0.2,1.4-0.8c0-0.3-0.3-0.8-0.9-0.8c-0.6,0-1,0-1.8-0.2c-1.2-0.3-3.8-0.6-7.9-4.8c-4.4-4.6-9.6-11.2-16.1-19.5
		c7.2-6,10.2-10.8,10.2-16.2c0-4.9-3.1-8.6-5.2-10.1c-3.9-2.7-9.3-3.1-13.9-3.1c-2.3,0-8.9,0.2-11.4,0.2c-1.5,0-6.2-0.2-10-0.2
		c-1.1,0-1.7,0.2-1.7,0.7c0,0.5,0.5,0.8,1.3,0.8c1.1,0,2.3,0.1,2.9,0.3c2.3,0.7,3,1.5,3.2,4c0.1,2.3,0.1,4.4,0.1,15.5V80.4
		L224.6,80.4z M234,51.3c0-0.6,0.2-0.9,0.7-1c0.8-0.2,2.5-0.3,4.3-0.3c4.3,0,11.2,2.7,11.2,13c0,6-2.5,9.2-4.8,10.9
		c-1.3,0.9-2.3,1.2-5.2,1.2c-1.8,0-4-0.2-5.6-0.7c-0.5-0.3-0.7-0.5-0.7-1.3V51.3L234,51.3z M302.4,83.3h-17.3
		c-0.4,0-0.5,0.1-0.7,0.5l-3.9,9.8c-0.8,1.8-1.1,3.6-1.1,4.5c0,1.3,0.7,2.1,2.9,2.1h1.1c0.9,0,1.1,0.3,1.1,0.8
		c0,0.6-0.4,0.8-1.2,0.8c-2.4,0-5.8-0.3-8.2-0.3c-0.8,0-4.7,0.3-8.5,0.3c-0.9,0-1.3-0.2-1.3-0.8c0-0.4,0.2-0.8,0.8-0.8
		c0.7,0,1.5-0.1,2.2-0.1c3.4-0.5,4.6-2.8,6.1-6.5l19.2-46.2c0.8-2.1,1.4-2.9,2.2-2.9c1.1,0,1.4,0.7,2.2,2.3
		c1.8,4.1,14,34.1,18.7,45.2c2.8,6.6,4.9,7.6,6.3,7.9c1.1,0.2,1.9,0.3,2.8,0.3c0.7,0,1,0.3,1,0.8c0,0.6-0.4,0.8-3.2,0.8
		c-2.6,0-7.9,0-14.1-0.2c-1.3-0.1-2.2-0.1-2.2-0.6c0-0.4,0.2-0.7,0.9-0.8c0.5-0.1,1-0.8,0.7-1.6l-5.7-14.8
		C303,83.4,302.7,83.3,302.4,83.3L302.4,83.3z M286.6,79.2h14.2c0.3,0,0.4-0.2,0.3-0.4l-6.9-18.6c-0.1-0.3-0.2-0.7-0.3-0.7
		c-0.2,0-0.3,0.4-0.4,0.7l-7.1,18.6C286.2,79,286.4,79.2,286.6,79.2L286.6,79.2z M339.1,80.4c0,6.7,0,12.5-0.3,15.6
		c-0.3,2.2-0.7,3.5-2.2,3.9c-0.6,0.2-1.5,0.3-2.6,0.3c-0.9,0-1.2,0.4-1.2,0.8c0,0.5,0.5,0.8,1.4,0.8c2.9,0,7.9-0.3,9.6-0.3
		c2.1,0,7,0.3,11.9,0.3c0.8,0,1.4-0.3,1.4-0.8c0-0.3-0.3-0.8-1.2-0.8c-1.1,0-2.8-0.1-3.8-0.3c-2.2-0.3-2.6-1.7-2.8-3.8
		c-0.3-3.2-0.4-9-0.4-15.7V50.7l9.3,0.2c6.6,0.1,8.5,2.3,8.7,4.2l0.1,0.8c0.1,1.1,0.3,1.5,0.8,1.5c0.4,0,0.6-0.4,0.7-1.2
		c0-1.9,0.2-7.3,0.2-8.9c0-1.1-0.1-1.6-0.6-1.6c-0.3,0-0.8,0.2-2,0.3c-1.1,0.2-2.7,0.3-5,0.3h-29.8c-2.4,0-5.2-0.1-7.3-0.3
		c-1.8-0.3-2.6-0.9-3.2-0.9c-0.4,0-0.7,0.4-0.8,1.4c-0.2,0.6-1.6,7.7-1.6,8.9c0,0.8,0.2,1.2,0.7,1.2c0.5,0,0.7-0.3,0.8-1
		c0.2-0.5,0.5-1.5,1.3-2.5c1.1-1.6,2.8-2.2,7.1-2.2l10.9-0.3V80.4L339.1,80.4z M397.6,83.3h-17.3c-0.4,0-0.5,0.1-0.7,0.5l-3.9,9.8
		c-0.8,1.8-1.1,3.6-1.1,4.5c0,1.3,0.7,2.1,2.9,2.1h1.1c0.9,0,1.1,0.3,1.1,0.8c0,0.6-0.4,0.8-1.2,0.8c-2.4,0-5.8-0.3-8.2-0.3
		c-0.8,0-4.7,0.3-8.5,0.3c-0.9,0-1.3-0.2-1.3-0.8c0-0.4,0.2-0.8,0.8-0.8c0.7,0,1.5-0.1,2.2-0.1c3.4-0.5,4.6-2.8,6.1-6.5l19.2-46.2
		c0.8-2.1,1.4-2.9,2.2-2.9c1.1,0,1.4,0.7,2.2,2.3c1.7,4.1,14,34.1,18.7,45.2c2.8,6.6,4.9,7.6,6.3,7.9c1.1,0.2,1.9,0.3,2.8,0.3
		c0.7,0,1,0.3,1,0.8c0,0.6-0.4,0.8-3.2,0.8c-2.6,0-7.9,0-14.1-0.2c-1.3-0.1-2.2-0.1-2.2-0.6c0-0.4,0.2-0.7,0.9-0.8
		c0.5-0.1,1-0.8,0.7-1.6l-5.7-14.8C398.2,83.4,398,83.3,397.6,83.3L397.6,83.3z M381.8,79.2H396c0.3,0,0.4-0.2,0.3-0.4l-6.9-18.6
		c-0.1-0.3-0.2-0.7-0.3-0.7c-0.3,0-0.3,0.4-0.4,0.7l-7.1,18.6C381.4,79,381.6,79.2,381.8,79.2z"/>
	<path class="st0" d="M428,53.9V37.4h-6.3v-2.9h15.8v2.9h-6.3v16.4H428L428,53.9z M439.6,53.9V34.6h4.7l4.9,15.4l4.7-15.4h4.6v19.3
		h-2.9V37.7l-5,16.2h-2.9l-5.2-16.4v16.4H439.6z"/>
</g>
</svg>
