<?xml version="1.0" encoding="utf-8"?>
<!-- Generator: Adobe Illustrator 19.1.0, SVG Export Plug-In . SVG Version: 6.00 Build 0)  -->
<svg version="1.1" id="Layer_3" xmlns="http://www.w3.org/2000/svg" xmlns:xlink="http://www.w3.org/1999/xlink" x="0px" y="0px"
	 viewBox="220 216 920 370" style="enable-background:new 220 216 920 370;" xml:space="preserve">
<style type="text/css">
	.st0{fill-rule:evenodd;clip-rule:evenodd;fill:#77787B;}
	.st1{fill:none;}
	.st2{fill-rule:evenodd;clip-rule:evenodd;fill:#008C8C;}
	.st3{fill-rule:evenodd;clip-rule:evenodd;fill:#4FBD97;}
	.st4{fill:#FFFFFF;}
</style>
<g>
	<path class="st0" d="M992.1,363v-25.6l-22.3-35.2h14.4l14.4,24.1l14-24.1h14.1l-22.3,35.3V363H992.1z M927.1,327.9h9.1
		c5.9,0,9.6-0.3,11-0.8c1.5-0.5,2.6-1.4,3.4-2.6c0.8-1.2,1.2-2.7,1.2-4.6c0-2-0.5-3.7-1.6-5c-1.1-1.3-2.6-2.1-4.6-2.4
		c-1-0.1-4-0.2-9-0.2h-9.6V327.9z M914.8,363v-60.8h25.9c6.5,0,11.2,0.5,14.2,1.6c3,1.1,5.3,3,7.1,5.8c1.8,2.8,2.7,6,2.7,9.6
		c0,4.6-1.3,8.3-4,11.3c-2.7,3-6.7,4.8-12,5.6c2.7,1.5,4.8,3.2,6.5,5.1c1.7,1.8,4,5.1,7,9.9l7.4,11.9h-14.7l-8.8-13.3
		c-3.2-4.7-5.3-7.7-6.5-8.9c-1.1-1.2-2.4-2.1-3.7-2.5c-1.3-0.5-3.4-0.7-6.2-0.7h-2.5V363H914.8z M885.8,338.9l-8.4-22.5l-8.2,22.5
		H885.8z M908.3,363H895l-5.2-13.8h-24.4l-5,13.8h-13l23.6-60.8h13L908.3,363z M804.5,327.9h9.1c5.9,0,9.6-0.3,11-0.8
		c1.4-0.5,2.6-1.4,3.5-2.6c0.8-1.2,1.2-2.7,1.2-4.6c0-2-0.5-3.7-1.6-5c-1.1-1.3-2.6-2.1-4.6-2.4c-1-0.1-4-0.2-9-0.2h-9.6V327.9z
		 M792.2,363v-60.8h25.8c6.5,0,11.2,0.5,14.2,1.6c2.9,1.1,5.3,3,7.1,5.8c1.8,2.8,2.7,6,2.7,9.6c0,4.6-1.3,8.3-4,11.3
		c-2.7,3-6.7,4.8-12,5.6c2.6,1.5,4.8,3.2,6.5,5.1c1.7,1.8,4,5.1,7,9.9l7.4,11.9h-14.7l-8.8-13.3c-3.2-4.7-5.3-7.7-6.5-8.9
		c-1.2-1.2-2.4-2.1-3.7-2.5c-1.3-0.5-3.4-0.7-6.2-0.7h-2.5V363H792.2z M743.2,336.4v16.3h11.4c4.4,0,7.2-0.1,8.4-0.4
		c1.8-0.4,3.3-1.2,4.5-2.4c1.1-1.3,1.7-3,1.7-5.2c0-1.8-0.4-3.4-1.3-4.7c-0.9-1.3-2.2-2.2-3.8-2.8c-1.7-0.6-5.3-0.9-10.9-0.9H743.2z
		 M743.2,312.3v14h8c4.8,0,7.7-0.1,8.9-0.2c2.1-0.2,3.8-1,5-2.2c1.2-1.2,1.8-2.8,1.8-4.7c0-1.9-0.5-3.4-1.5-4.6
		c-1-1.2-2.6-1.9-4.6-2.1c-1.2-0.1-4.7-0.2-10.5-0.2H743.2z M730.9,302.2h24.3c4.8,0,8.4,0.2,10.8,0.6c2.4,0.4,4.5,1.2,6.3,2.5
		c1.9,1.3,3.4,2.9,4.7,5.1c1.2,2.1,1.9,4.5,1.9,7.1c0,2.8-0.8,5.4-2.3,7.8c-1.5,2.4-3.6,4.1-6.2,5.3c3.7,1.1,6.5,2.9,8.5,5.5
		c2,2.6,3,5.6,3,9.2c0,2.8-0.6,5.5-1.9,8.1c-1.3,2.6-3,4.7-5.3,6.3c-2.2,1.6-5,2.5-8.2,2.9c-2,0.2-7,0.3-14.8,0.4h-20.7V302.2z
		 M706.9,363v-60.8h12.3V363H706.9z M655.8,363v-60.3h12.3v50h30.5V363H655.8z"/>
	<path class="st0" d="M1090.6,462l12-1.2c0.7,4,2.2,6.9,4.4,8.8c2.2,1.9,5.2,2.8,8.9,2.8c3.9,0,6.9-0.8,8.9-2.5c2-1.7,3-3.6,3-5.9
		c0-1.4-0.4-2.7-1.2-3.7c-0.9-1-2.3-1.9-4.4-2.6c-1.4-0.5-4.7-1.4-9.8-2.7c-6.6-1.6-11.2-3.6-13.8-6.1c-3.7-3.3-5.6-7.4-5.6-12.3
		c0-3.1,0.9-6,2.6-8.7c1.8-2.7,4.3-4.7,7.6-6.1c3.3-1.4,7.3-2.1,11.9-2.1c7.6,0,13.3,1.7,17.2,5.1c3.9,3.4,5.8,7.9,6,13.5l-12.3,0.4
		c-0.5-3.1-1.6-5.4-3.3-6.8c-1.7-1.4-4.3-2.1-7.7-2.1c-3.5,0-6.3,0.8-8.3,2.2c-1.3,1-1.9,2.2-1.9,3.8c0,1.5,0.6,2.7,1.8,3.7
		c1.5,1.3,5.3,2.7,11.2,4.1c6,1.4,10.4,2.9,13.2,4.4c2.8,1.5,5.1,3.6,6.7,6.2c1.6,2.6,2.4,5.8,2.4,9.7c0,3.5-1,6.7-2.9,9.8
		c-1.9,3-4.7,5.3-8.2,6.8c-3.5,1.5-7.9,2.2-13.2,2.2c-7.7,0-13.6-1.8-17.7-5.3C1093.9,474,1091.4,468.8,1090.6,462 M1032.6,481.7
		V421h11.9l25,40.7V421h11.4v60.7h-12.3l-24.6-39.9v39.9H1032.6z M976.7,451.3c0,6.9,1.6,12.1,4.8,15.7c3.2,3.6,7.2,5.3,12.1,5.3
		c4.9,0,8.9-1.8,12.1-5.3c3.2-3.5,4.7-8.8,4.7-15.9c0-7-1.5-12.2-4.6-15.6c-3-3.4-7.1-5.1-12.2-5.1c-5.1,0-9.2,1.7-12.2,5.2
		C978.2,439.1,976.7,444.3,976.7,451.3z M964,451.7c0-6.2,0.9-11.4,2.8-15.6c1.4-3.1,3.3-5.9,5.7-8.3c2.4-2.5,5-4.3,7.9-5.5
		c3.8-1.6,8.2-2.4,13.1-2.4c9,0,16.1,2.8,21.5,8.3c5.4,5.6,8,13.3,8,23.2c0,9.8-2.7,17.5-8,23.1c-5.3,5.6-12.5,8.3-21.4,8.3
		c-9,0-16.2-2.7-21.6-8.3C966.7,469,964,461.4,964,451.7z M942.6,481.7V421h12.3v60.7H942.6z M904.8,481.7v-50.5h-18V421H935v10.3
		h-17.9v50.5H904.8z M829.9,421h12.3v32.9c0,5.2,0.1,8.6,0.4,10.2c0.5,2.5,1.8,4.5,3.7,6c2,1.5,4.7,2.3,8,2.3c3.4,0,6.1-0.7,7.8-2.1
		c1.8-1.4,2.8-3.2,3.2-5.3c0.4-2.1,0.5-5.5,0.5-10.3V421h12.3v31.9c0,7.3-0.3,12.5-1,15.5c-0.6,3-1.9,5.6-3.6,7.6
		c-1.8,2.1-4.2,3.7-7.1,4.9c-3,1.2-6.9,1.9-11.7,1.9c-5.8,0-10.2-0.7-13.1-2c-3-1.3-5.3-3.1-7.1-5.2c-1.7-2.1-2.9-4.4-3.4-6.7
		c-0.8-3.5-1.2-8.6-1.2-15.4V421z M778.4,481.7v-60.2h12.3v50h30.5v10.3H778.4z M722.1,451.3c0,6.9,1.6,12.1,4.8,15.7
		c3.2,3.6,7.2,5.3,12.1,5.3c4.9,0,8.9-1.8,12.1-5.3c3.2-3.5,4.7-8.8,4.7-15.9c0-7-1.5-12.2-4.6-15.6c-3.1-3.4-7.1-5.1-12.2-5.1
		c-5.1,0-9.2,1.7-12.2,5.2C723.7,439.1,722.1,444.3,722.1,451.3z M709.5,451.7c0-6.2,0.9-11.4,2.8-15.6c1.4-3.1,3.3-5.9,5.6-8.3
		c2.4-2.5,5-4.3,7.9-5.5c3.8-1.6,8.2-2.4,13.1-2.4c9,0,16.1,2.8,21.5,8.3c5.4,5.6,8,13.3,8,23.2c0,9.8-2.7,17.5-8,23.1
		c-5.3,5.6-12.5,8.3-21.4,8.3c-9,0-16.2-2.7-21.6-8.3C712.2,469,709.5,461.4,709.5,451.7z M652.2,462l12-1.2c0.7,4,2.2,6.9,4.4,8.8
		c2.2,1.9,5.1,2.8,8.9,2.8c3.9,0,6.9-0.8,8.9-2.5c2-1.7,3-3.6,3-5.9c0-1.4-0.4-2.7-1.3-3.7c-0.8-1-2.3-1.9-4.4-2.6
		c-1.4-0.5-4.7-1.4-9.8-2.7c-6.5-1.6-11.1-3.6-13.8-6.1c-3.7-3.3-5.6-7.4-5.6-12.3c0-3.1,0.9-6,2.6-8.7c1.8-2.7,4.2-4.7,7.6-6.1
		c3.3-1.4,7.3-2.1,11.9-2.1c7.6,0,13.3,1.7,17.1,5.1c3.9,3.4,5.9,7.9,6.1,13.5l-12.3,0.4c-0.5-3.1-1.6-5.4-3.3-6.8
		c-1.7-1.4-4.3-2.1-7.7-2.1c-3.5,0-6.3,0.8-8.3,2.2c-1.3,1-1.9,2.2-1.9,3.8c0,1.5,0.6,2.7,1.8,3.7c1.6,1.3,5.3,2.7,11.2,4.1
		c6,1.4,10.4,2.9,13.2,4.4c2.9,1.5,5.1,3.6,6.7,6.2c1.6,2.6,2.4,5.8,2.4,9.7c0,3.5-1,6.7-2.9,9.8c-1.9,3-4.7,5.3-8.2,6.8
		c-3.5,1.5-7.9,2.2-13.2,2.2c-7.7,0-13.6-1.8-17.7-5.3C655.5,474,653,468.8,652.2,462z"/>
	<rect x="223.1" y="256.4" class="st1" width="385.5" height="290.7"/>
	<g>
		<path class="st2" d="M333.1,254.9h254.1v162.2c0,62.2-50.9,113.1-113.1,113.1H220V368C220,305.8,270.9,254.9,333.1,254.9"/>
		<path class="st3" d="M589.2,254.9h17.8v172c0,66-53.6,119.9-119.2,119.9H220v-14.4h250c71.2,0,119.2-51,119.2-119.9V254.9z"/>
		<path class="st4" d="M320.5,354.2v129.1c0,2.6,0.8,4.8,2.3,6.3c1.6,1.4,3.5,2.1,5.7,2.1c2.1,0,3.9-0.7,5.5-2.1
			c1.7-1.6,2.6-3.7,2.6-6.3V382.8c3.1-6.7,7.6-11.9,13.4-15.7c6.5-4.3,14-6.4,22.4-6.4c4.3,0,6.4-2.7,6.2-8.1
			c-0.2-5.2-2.2-7.8-5.9-7.8c-8.2,0-15.6,2.1-22.2,6.3c-5,3.1-9.6,7.7-13.9,13.7v-10.6c0-2.4-0.9-4.3-2.6-5.7
			c-1.5-1-3.4-1.5-5.5-1.5c-2.2,0-4.1,0.6-5.7,1.8C321.3,350.1,320.5,351.9,320.5,354.2"/>
		<path class="st4" d="M460.3,293.3c-17.4,0-31.1,5.2-41.3,15.7c-9.1,9.5-13.7,21.1-13.7,35c0,2.6,0.8,4.7,2.3,6.4
			c1.4,1.4,3.2,2.1,5.5,2.1c2.1,0,3.8-0.7,5.2-2.1c1.7-1.7,2.6-3.8,2.6-6.4c0-10,3.2-18.3,9.5-25.1c7.2-7.4,17.1-11.1,29.6-11.1
			c12.2,0,21.9,3.7,29.1,11.1c6.7,6.8,10,15.3,10,25.2c0,9.6-3.3,17.7-10.1,24.4c-7,7.2-16.7,10.8-29.2,10.8h-7.2
			c-4.8,0-7.2,2.3-7.2,7c0,4.8,2.4,7.3,7.2,7.3h9c14,0,25.1,4.2,33.3,12.6c7.5,7.7,11.3,17.4,11.3,29.1c0,11.2-3.7,20.7-11.1,28.6
			c-8.2,8.9-19.3,13.4-33.2,13.4c-13.9,0-25-4.5-33.2-13.4c-7.2-7.9-10.8-17.4-10.8-28.6v-5.7c0-2.6-0.9-4.6-2.6-5.9
			c-1.5-1.2-3.4-1.8-5.5-1.8c-2.2,0-4.1,0.6-5.7,1.8c-1.5,1.4-2.3,3.3-2.3,5.9v5.4c0,15.3,5,28.4,15,39c11,11.9,26.1,17.8,45.1,17.8
			c18.6,0,33.5-5.9,44.7-17.8c10.3-10.8,15.5-23.8,15.5-39c0-12.7-3.7-23.9-11.2-33.6c-5.8-7.2-12.4-12.5-20-15.7
			c5.5-2.4,10.6-6.7,15.4-12.9c6.3-8.3,9.5-17.9,9.5-28.9c0-13.7-4.6-25.5-13.9-35.1C491.5,298.5,477.7,293.3,460.3,293.3"/>
	</g>
</g>
</svg>
